<svg xmlns="http://www.w3.org/2000/svg" width="1440" height="670" viewBox="0 0 1440 670" fill="none"><g opacity="0.5" clip-path="url(#clip0_1363_30519)"><path d="M10.176 934.078C14.72 835.39 77.632 763.422 128.192 705.598L131.776 701.502C137.632 695.326 151.168 678.814 150.112 658.878C149.472 646.718 143.456 635.742 132.256 626.206C125.504 620.51 119.456 615.166 113.376 610.206C88.2979 587.914 61.9613 567.08 34.496 547.806C22.784 539.678 11.264 531.806 0 524.766V525.886C11.072 533.022 22.4 540.574 33.952 548.574C61.3919 567.843 87.7069 588.666 112.768 610.942C118.688 616.03 124.896 621.374 131.616 626.942C142.624 636.286 148.512 647.07 149.152 658.942C150.208 678.398 136.864 694.75 131.2 700.798L127.584 704.926C76.8 762.91 13.76 835.006 9.216 934.046C8.704 944.574 4.608 951.038 0 953.246V954.398C4.992 952.318 9.6 945.79 10.176 934.078Z" fill="white"/><path d="M32.544 935.102C36.736 844.222 96.8 775.55 145.056 720.35L148.672 716.222C157.33 706.481 165.469 696.291 173.056 685.694C180.576 674.942 194.56 654.942 161.536 623.102C126.034 588.792 87.8188 557.405 47.264 529.246C30.8587 517.897 15.104 507.614 0 498.398V499.518C14.9333 508.67 30.5067 518.846 46.72 530.046C87.2242 558.172 125.396 589.516 160.864 623.774C193.28 655.07 179.616 674.622 172.288 685.15C164.703 695.719 156.574 705.887 147.936 715.614L144.32 719.742C96 775.038 35.776 843.87 31.584 935.07C29.632 977.374 21.984 1001.98 7.936 1012.54C5.65431 1014.4 2.91184 1015.61 0 1016.03L0 1017.02C3.12423 1016.59 6.0691 1015.31 8.512 1013.31C22.944 1002.59 30.56 977.726 32.544 935.102Z" fill="white"/><path d="M423.136 285.089C416.896 260.513 366.72 253.953 308.64 246.401C294.272 244.545 279.424 242.593 265.024 240.321C201.312 230.273 143.008 198.273 86.624 167.361C58.368 151.809 29.536 136.001 0 122.977V125.441C29.12 138.241 57.6 153.953 85.536 169.249C142.08 200.289 200.736 232.353 264.736 242.465C279.168 244.737 294.048 246.689 308.416 248.577C363.296 255.745 415.168 262.529 421.024 285.633C425.568 303.617 402.144 330.913 349.408 369.057C275.2 422.561 213.216 447.489 153.888 447.489C119.213 447.286 85.0936 438.759 54.4 422.625C35.2923 412.385 17.093 400.534 0 387.201L0 390.017C16.8367 403.029 34.7461 414.59 53.536 424.577C84.4954 440.857 118.909 449.472 153.888 449.697V449.697C213.696 449.697 276.224 424.641 350.624 370.817C404.96 331.585 428 304.321 423.136 285.089Z" fill="white"/><path d="M8.288 790.174C17.3247 775.281 27.567 761.154 38.912 747.934C54.496 728.734 70.624 708.894 79.328 684.51C94.624 641.534 64.608 621.662 32.864 600.638L24.032 594.75C18.784 591.198 13.856 587.87 8.992 584.478C6.592 582.814 3.648 580.702 0 578.078V579.198C3.37067 581.673 6.18667 583.689 8.448 585.246C13.312 588.446 18.24 591.966 23.52 595.518L32.32 601.598C63.776 622.398 93.472 642.078 78.4 684.35C69.792 708.574 53.696 728.382 38.176 747.486C26.7916 760.743 16.5169 774.913 7.456 789.854C4.62138 795.205 2.13099 800.731 0 806.398L0 808.99L0.768 807.038C2.91558 801.263 5.42729 795.631 8.288 790.174V790.174Z" fill="white"/><path d="M501.569 194.977C496.065 194.977 488.289 198.465 482.593 215.201C476.193 234.017 488.545 238.401 501.633 243.009C503.937 243.841 506.337 244.673 508.609 245.601C512.646 247.434 516.983 248.518 521.409 248.801C522.97 248.945 524.543 248.668 525.961 247.998C527.379 247.329 528.592 246.291 529.473 244.993C534.369 237.249 526.529 220.065 522.913 212.993C517.217 201.601 509.185 194.977 501.569 194.977ZM528.257 244.097C525.697 248.161 519.233 248.129 509.057 244.097C506.721 243.169 504.321 242.337 502.017 241.505C489.217 236.961 478.017 233.025 483.937 215.713C488.225 203.201 494.273 196.513 501.409 196.513C508.545 196.513 515.905 202.913 521.441 213.633C528.865 227.841 531.201 239.201 528.257 244.097Z" fill="white"/><path d="M86.4 719.71L90.72 714.59C111.328 690.366 132.64 665.31 108.416 635.326C89.696 612.158 61.44 593.054 36.512 576.19C31.424 572.798 26.56 569.406 21.76 566.078C18.56 563.838 14.144 560.638 8.96 556.958L0 550.398V551.582L8.512 557.79C13.6 561.502 18.112 564.67 21.312 566.91C26.144 570.27 30.912 573.566 36.192 577.054C61.056 593.886 89.28 612.958 107.904 635.998C131.616 665.342 110.56 690.11 90.24 714.046C88.768 715.742 87.296 717.47 85.888 719.166C68 740.478 45.152 769.054 27.072 800.83C16.1105 820.01 7.04371 840.212 0 861.15L0 864.35C7.07046 842.429 16.3782 821.294 27.776 801.278C45.792 769.534 68.608 741.022 86.4 719.71Z" fill="white"/><path d="M68.256 395.845C92.576 408.325 113.248 414.117 133.28 414.117C154.272 414.117 172.928 407.717 194.528 400.517C206.784 396.389 220.672 391.685 236.448 387.717C242.828 386.173 249.373 385.421 255.936 385.477C259.136 385.477 261.92 385.477 264.736 385.733C267.552 385.989 269.952 385.925 272.48 385.925C285.28 385.925 295.744 382.725 307.04 367.589C312.705 359.957 317.083 351.45 320 342.405C323.776 331.909 326.752 323.621 343.328 311.749C348.455 308.553 353.93 305.955 359.648 304.005C369.248 300.261 377.312 297.029 377.664 291.589C377.92 287.173 372.768 282.213 361.44 276.069C347.872 268.677 328.48 267.685 311.296 267.685C303.648 267.685 295.616 267.909 287.84 268.165C280.064 268.421 271.84 268.613 264.192 268.613C251.018 269.019 237.849 267.684 225.024 264.645C169.344 249.605 117.12 220.805 71.072 195.621C46.88 182.405 23.424 169.605 0 158.469V160.261C23.168 171.205 46.368 183.909 70.4 197.029C116.544 222.341 168.832 251.013 224.704 266.213C237.673 269.229 250.98 270.542 264.288 270.117C272.064 270.117 280.288 269.893 287.968 269.669C295.648 269.445 303.776 269.189 311.392 269.189C328.384 269.189 347.488 270.149 360.768 277.349C371.2 283.045 376.384 287.749 376.16 291.397C375.872 295.845 367.744 299.013 359.136 302.405C353.268 304.419 347.652 307.103 342.4 310.405C325.408 322.533 322.208 331.461 318.496 341.797C315.606 350.734 311.283 359.142 305.696 366.693C294.784 381.413 284.864 384.357 272.416 384.357C269.92 384.357 267.424 384.357 264.736 384.165C262.048 383.973 259.008 384.005 256 384.005C249.295 383.944 242.609 384.718 236.096 386.309C220.288 390.277 206.368 394.981 194.08 399.109C172.608 406.341 154.08 412.613 133.28 412.613C113.504 412.613 93.088 406.853 68.992 394.533C46.976 383.141 27.168 368.005 8 353.605L0 347.557V349.573L7.04 354.885C26.24 369.445 46.112 384.517 68.256 395.845Z" fill="white"/><path d="M83.008 367.07C104.822 378.74 129.149 384.924 153.888 385.086C167.36 385.086 196.416 379.582 221.792 370.398C244 362.334 270.496 348.958 270.528 330.974C270.528 309.79 229.696 298.014 205.248 290.974C199.936 289.438 195.328 288.126 192.448 287.006C145.223 269.629 99.4387 248.561 55.52 223.998C36.64 213.598 18.176 203.486 0 194.398V195.486C18.016 204.51 36.32 214.686 55.072 224.798C98.9877 249.421 144.771 270.553 192 287.998C195.2 289.15 199.712 290.462 205.056 291.998C229.248 298.942 269.728 310.59 269.664 331.07C269.664 362.174 181.856 384.222 153.92 384.222C129.352 384.039 105.195 377.901 83.52 366.334C63.968 356.318 45.312 342.142 27.232 328.446C18.496 321.822 9.504 315.006 0.096 308.382V309.566C9.28 315.966 18.08 322.718 26.656 329.214C44.8 342.846 63.36 357.022 83.008 367.07Z" fill="white"/><path d="M93.216 347.131C111.917 357.18 132.786 362.518 154.016 362.683C171.744 362.683 194.944 357.435 203.84 345.883C205.751 343.436 207.041 340.563 207.598 337.509C208.156 334.455 207.964 331.311 207.04 328.347C203.008 312.827 170.496 301.883 146.784 293.851C139.104 291.259 132.48 289.019 128.416 287.131C100.992 274.331 74.016 259.547 47.616 245.147L44.704 243.547C29.472 235.227 14.624 227.195 0 219.547V220.603C14.464 228.091 29.152 236.155 44.16 244.379L47.104 245.979C73.344 260.379 100.512 275.195 128 287.995C132.128 289.883 138.784 292.123 146.464 294.747C168.672 302.235 202.208 313.563 206.112 328.571C206.962 331.402 207.115 334.397 206.558 337.3C206 340.202 204.75 342.928 202.912 345.243C194.24 356.571 171.392 361.595 153.824 361.595C132.808 361.394 112.154 356.102 93.632 346.171C75.84 337.179 57.952 323.611 40.672 310.395C28.16 301.019 14.72 290.843 0 281.243V282.395C14.496 291.995 27.744 301.915 40.096 311.195C57.408 324.411 75.328 337.979 93.216 347.131Z" fill="white"/><path d="M567.937 19.2C569.537 12.8 571.137 6.4 572.577 0H570.913C569.473 6.208 567.937 12.448 566.369 18.784C563.425 30.656 560.385 42.912 557.921 55.456C549.729 97.216 542.657 151.936 561.121 205.088C568.545 226.688 587.041 244.32 603.361 259.872C617.921 273.728 630.465 285.696 629.313 295.744C628.801 300.384 625.441 304.48 619.009 308.32C614.28 310.433 609.103 311.345 603.937 310.976C579.361 310.976 536.033 300.128 503.969 289.376C468.929 277.696 425.985 259.2 419.201 236.8C417.057 229.696 418.817 222.528 424.385 215.456C431.359 206.855 438.76 198.61 446.561 190.752C461.121 175.616 474.881 161.312 483.969 140.096C496.939 110.433 498.612 77.051 488.673 46.24C486.273 38.496 483.873 31.36 481.729 25.056C478.529 15.744 475.873 7.616 473.985 0.064H472.321C474.209 7.776 477.025 16.064 480.225 25.664C482.337 32.064 484.737 39.072 487.137 46.816C496.986 77.2765 495.336 110.29 482.497 139.616C473.537 160.576 459.873 174.816 445.409 189.824C437.985 197.536 430.305 205.536 423.009 214.624C417.121 222.112 415.265 229.792 417.569 237.44C424.417 260.416 467.841 279.328 503.073 291.136C535.265 301.92 578.785 312.8 603.553 312.8C609.044 313.208 614.549 312.217 619.553 309.92C626.465 305.824 630.081 301.312 630.657 296.16C631.873 285.312 619.073 273.088 604.225 258.944C588.033 243.52 569.665 226.016 562.369 204.8C544.225 152 551.233 97.536 559.393 55.968C561.953 43.264 564.993 31.008 567.937 19.2Z" fill="white"/><path d="M103.264 327.492C115.021 332.842 127.677 335.936 140.576 336.612C144.232 336.851 147.882 336.052 151.104 334.308C156.192 331.108 158.432 327.908 157.952 324.708C156.928 317.988 142.24 313.924 130.464 310.628C126.585 309.741 122.768 308.597 119.04 307.204C90.976 294.18 63.488 279.108 36.96 264.548L34.016 262.948C22.4 256.58 11.168 250.372 0 244.484V246.404C10.912 252.196 21.984 258.276 33.248 264.452L36.192 266.052C62.752 280.484 90.24 295.588 118.4 308.644C122.205 310.136 126.107 311.366 130.08 312.324C140.8 315.332 155.68 319.396 156.416 325.124C156.768 327.46 154.688 330.116 150.272 332.964C147.326 334.53 144 335.24 140.672 335.012C128.003 334.314 115.572 331.287 104 326.084C88 317.86 70.912 304.932 54.4 292.42C36.9931 278.769 18.831 266.109 0 254.5L0 256.388C18.4951 267.835 36.3461 280.291 53.472 293.7C70.016 306.244 87.136 319.236 103.264 327.492Z" fill="white"/><path d="M55.232 936.162C59.072 853.218 116.224 787.842 162.144 735.33L165.76 731.17C220.384 668.674 218.176 646.818 192.544 621.538C151.75 580.777 107.475 543.655 60.224 510.594C39.744 496.418 19.52 483.426 0 471.906V473.762C19.2 485.154 39.168 497.922 59.296 511.906C106.478 544.92 150.688 581.989 191.424 622.69C216.32 647.234 218.336 668.578 164.576 730.146L160.96 734.274C114.848 786.978 57.472 852.674 53.632 936.098C50.016 1014.4 20.512 1037.47 0 1043.94V1045.6C20.992 1039.23 51.552 1016.1 55.232 936.162Z" fill="white"/><path d="M408.448 27.68C430.368 95.968 439.296 133.088 384.864 164.544C375.484 169.931 365.31 173.797 354.72 176C344.625 178.077 334.339 179.086 324.032 179.008C222.88 179.008 84.032 94.464 9.248 49.056L6.688 47.52L0 43.296V45.184L5.856 48.736L8.416 50.304C83.2 95.808 222.432 180.48 324.032 180.48C334.446 180.548 344.838 179.53 355.04 177.44C365.788 175.225 376.121 171.338 385.664 165.92C441.152 133.92 432.16 96.288 409.952 27.2C407.136 18.432 404.224 9.312 401.568 0H400C402.592 9.6 405.568 18.784 408.448 27.68Z" fill="white"/><path d="M280.706 17.92C281.346 20.352 282.242 23.296 283.266 26.624C286.146 36.224 285.634 42.464 281.73 45.6C279.254 47.3283 276.263 48.1633 273.25 47.968C257.634 47.968 231.65 34.016 223.074 29.44C218.914 27.2 215.746 25.536 213.282 24.288L200.162 17.888C188.13 12 176.386 6.048 164.962 0.064H162.914C174.786 6.464 187.074 12.576 199.682 18.752L212.802 25.152C215.266 26.4 218.402 28.064 222.402 30.304C231.01 34.912 257.154 48.928 273.026 48.928C276.263 49.1289 279.47 48.214 282.114 46.336C286.338 42.944 286.978 36.224 283.97 26.336C282.946 23.136 282.05 19.936 281.41 17.664C280.098 11.872 278.402 6.016 277.09 0H276.098C277.57 6.112 279.138 12.064 280.706 17.92Z" fill="white"/><path d="M378.272 37.376C387.168 65.024 395.648 99.712 382.368 122.592C375.968 133.952 364.288 141.44 348.128 144.992C340.208 146.592 332.143 147.364 324.064 147.296C231.744 147.2 97.728 65.664 25.6 21.856L12.416 13.792C8.352 11.328 4.192 9.024 0 6.848V7.936C4.032 10.048 8 12.256 11.936 14.624L25.216 22.688C97.28 66.528 231.488 148.16 324.064 148.16C332.209 148.233 340.339 147.45 348.32 145.824C364.736 142.336 376.48 134.688 383.2 123.072C396.672 99.84 388.128 64.928 379.2 37.056C375.36 25.12 371.552 12.8 368.32 0H367.296C370.592 12.8 374.4 25.344 378.272 37.376Z" fill="white"/><path d="M302.365 12.16C302.941 14.336 303.741 17.024 304.701 20.096C309.341 35.328 316.349 58.496 309.725 68.96C308.332 71.139 306.505 73.0079 304.357 74.4502C302.21 75.8926 299.789 76.8776 297.245 77.344C294.796 77.8775 292.296 78.1352 289.789 78.112C266.429 78.112 231.325 59.296 212.477 49.312C208.829 47.36 205.661 45.664 203.293 44.48L201.597 43.52L196.413 40.96L190.237 37.76C164.829 25.6 140.605 12.8 118.397 0H116.445C139.165 12.96 163.869 26.048 190.045 38.784L196.221 41.984L201.373 44.544L203.037 45.376C205.373 46.56 208.541 48.224 212.189 50.208C231.101 60.352 266.333 79.232 289.949 79.232C292.53 79.2545 295.105 78.997 297.629 78.464C300.254 77.9051 302.739 76.8202 304.934 75.2748C307.128 73.7293 308.987 71.7554 310.397 69.472C317.405 58.496 310.397 35.2 305.597 19.808C304.669 16.608 303.869 14.08 303.293 11.936C302.237 8 301.181 4.032 300.093 0H299.101C300.221 4.096 301.277 8.16 302.365 12.16Z" fill="white"/><path d="M324.001 6.4C328.545 23.488 333.249 41.12 333.601 59.36C334.241 82.912 325.057 96.384 306.337 99.424C303.341 99.8848 300.313 100.109 297.281 100.096C264.737 100.096 218.177 76.864 193.153 64.384L186.433 61.184L180.257 58.176C141.505 38.976 105.409 19.2 74.4334 0H72.6094C103.937 19.456 140.513 39.552 180.001 58.912L186.177 61.92L192.865 65.12C217.953 77.76 264.673 101.056 297.601 101.056C300.676 101.072 303.746 100.847 306.785 100.384C325.985 97.184 335.585 83.424 334.881 59.328C334.369 40.992 329.665 23.296 325.089 6.144C324.385 4.128 323.841 2.048 323.201 0H322.209C322.881 2.144 323.425 4.288 324.001 6.4Z" fill="white"/><path d="M356.96 44.2248C357.408 45.6648 357.888 47.1368 358.4 48.6088C363.488 64.1927 368.8 80.2888 360.256 95.8088C356.279 102.552 350.962 108.408 344.632 113.015C338.302 117.622 331.095 120.882 323.456 122.593C321.888 122.913 320.256 123.201 318.784 123.361C314.843 123.815 310.879 124.039 306.912 124.033C263.936 124.033 213.536 99.2648 176.736 81.1848L170.56 78.1448C123.296 55.0088 77.6318 27.2327 37.3438 2.72075L32.8638 0.00075H31.0078L36.8318 3.55275C77.1518 28.0647 122.816 55.8408 170.144 79.0088L176.32 82.0488C213.184 100.161 263.712 124.993 306.912 124.993C310.921 125 314.928 124.776 318.912 124.321C320.48 124.129 322.112 123.873 323.68 123.521C331.443 121.775 338.767 118.458 345.201 113.774C351.634 109.091 357.041 103.14 361.088 96.2888C369.824 80.2888 364.48 64.0648 359.296 48.2888L357.856 43.8728C353.344 29.8568 348.928 15.0727 345.248 -0.03125H344.256C347.968 15.2968 352.416 30.1128 356.96 44.2248Z" fill="white"/><path d="M336.83 644.869C334.574 641.094 331.488 637.882 327.807 635.476C324.126 633.07 319.945 631.533 315.582 630.981C309.943 630.15 304.593 627.953 299.998 624.581L299.518 624.005C283.198 605.733 228.478 546.149 209.918 546.149C208.952 546.098 207.989 546.281 207.108 546.682C206.228 547.083 205.458 547.691 204.862 548.453C202.398 551.653 202.526 558.053 205.246 568.325C206.878 574.373 222.366 582.661 238.782 591.493C252.446 598.821 266.59 606.405 271.39 612.101C275.678 617.189 281.342 624.261 280.99 626.725C280.99 627.397 280.126 627.781 278.878 628.389C275.998 629.829 271.678 631.973 273.982 642.085C276.235 649.448 279.649 656.405 284.094 662.693C287.94 668.199 290.989 674.222 293.15 680.581C297.246 696.325 271.454 725.221 254.398 744.325C248.766 750.725 243.902 756.101 240.798 760.325C227.646 776.849 213.316 792.399 197.918 806.853C168.766 835.653 138.622 865.285 128.03 906.277C111.998 967.461 108.798 1021.57 118.398 1067.01C123.518 1091.27 141.182 1125.09 158.302 1125.09C168.958 1125.09 176.734 1112.29 181.374 1087.01C199.294 989.637 248.19 957.253 295.454 925.925C337.342 898.181 376.894 871.973 393.918 803.909C400.318 778.309 390.462 738.725 377.63 716.869C372.507 708.703 365.726 701.704 357.726 696.325C351.327 692.045 345.773 686.62 341.342 680.325C338.142 675.365 338.75 669.573 339.326 663.429C339.902 657.285 340.702 650.437 336.83 644.869ZM339.55 681.445C344.093 688.009 349.837 693.655 356.478 698.085C364.189 703.317 370.727 710.095 375.678 717.989C388.286 739.461 398.078 778.213 391.678 803.365C374.878 870.565 335.678 896.581 294.142 924.069C246.654 955.653 197.374 988.325 179.198 1086.6C174.846 1110.31 167.614 1122.85 158.334 1122.85C143.774 1122.85 126.11 1092.58 120.606 1066.56C111.006 1021.48 114.206 967.685 129.982 906.757C140.414 866.341 170.334 836.869 199.262 808.357C214.77 793.844 229.198 778.219 242.43 761.605C245.47 757.573 250.302 752.005 255.902 745.893C274.334 725.253 299.55 696.965 295.166 680.101C292.963 673.506 289.815 667.265 285.822 661.573C281.524 655.483 278.209 648.756 275.998 641.637C274.11 633.253 277.086 631.781 279.71 630.469C281.15 629.765 282.654 628.997 282.91 627.269C283.422 624.933 281.918 621.349 272.99 610.757C267.934 604.741 253.598 597.029 239.742 589.605C225.182 581.797 208.702 572.933 207.326 567.845C204.126 556.261 205.182 551.845 206.558 549.925C206.937 549.446 207.426 549.065 207.983 548.814C208.539 548.564 209.149 548.451 209.758 548.485C223.742 548.485 264.35 588.325 297.694 625.605L298.366 626.309C303.251 629.926 308.938 632.308 314.942 633.253C319.018 633.722 322.932 635.119 326.383 637.339C329.833 639.558 332.729 642.539 334.846 646.053C338.046 650.949 337.662 656.805 337.054 663.013C336.446 669.221 335.998 675.813 339.55 681.605V681.445Z" fill="white"/><path d="M0 437.15C107.904 498.206 224.192 595.358 245.376 643.646C258.176 672.638 227.264 707.294 188.256 751.166C144 801.022 88.704 863.07 85.28 937.598C81.088 1028.32 36.096 1065.6 0 1076.86V1079.23C36.928 1067.97 83.2 1030.21 87.52 937.662C90.912 864.062 145.824 802.27 189.92 752.67C229.472 708.19 260.704 673.054 247.52 642.75C226.08 594.11 108.8 495.998 0 434.75V437.15Z" fill="white"/><path d="M543.588 0.192V0H542.276C540.01 2.19565 538.167 4.78779 536.836 7.648C532.868 16.992 533.988 26.848 535.076 36.16C535.84 41.4576 536.172 46.8086 536.068 52.16C535.445 60.6992 534.194 69.1809 532.324 77.536C530.98 84.448 529.572 91.584 528.9 98.56C524.964 140.8 528.676 179.2 540.068 212.288C542.436 219.136 551.716 229.728 561.54 241.088C574.084 255.392 587.14 270.24 587.588 279.232C587.688 280.103 587.6 280.985 587.329 281.819C587.059 282.652 586.612 283.418 586.02 284.064C582.628 287.648 573.54 288.32 558.98 286.016C548.405 283.833 538.14 280.351 528.42 275.648C522.692 273.152 516.74 270.56 510.82 268.576L505.604 266.72C484.324 259.712 455.172 250.08 451.012 233.248C449.028 225.216 452.932 216.032 462.628 205.952C477.892 189.952 493.668 173.664 504.228 148.736C514.468 124.832 526.244 78.336 521.732 53.184C520.847 48.8756 519.094 44.7926 516.58 41.184C514.792 38.8688 513.495 36.2131 512.769 33.3795C512.042 30.5458 511.902 27.5938 512.356 24.704C513.129 20.3736 514.928 16.2916 517.604 12.8C519.053 11.0239 520.135 8.97824 520.789 6.7812C521.443 4.58415 521.654 2.27934 521.412 0L520.452 0C520.69 2.17788 520.49 4.38145 519.864 6.48084C519.237 8.58024 518.197 10.533 516.804 12.224C514.095 15.8455 512.315 20.0755 511.62 24.544C511.13 27.5312 511.261 30.5872 512.005 33.5216C512.748 36.456 514.087 39.2059 515.94 41.6C518.405 45.1073 520.126 49.0823 520.996 53.28C525.476 78.272 513.732 124.512 503.524 148.288C492.9 173.056 477.156 189.408 461.924 205.216C451.972 215.552 448.004 225.024 450.084 233.408C454.372 250.784 483.812 260.48 505.284 267.584L510.5 269.312C516.356 271.264 522.276 273.856 528.004 276.32C537.784 281.082 548.127 284.587 558.788 286.752C563.64 287.594 568.551 288.054 573.476 288.128C580.068 288.128 584.388 286.944 586.692 284.512C587.368 283.77 587.88 282.893 588.195 281.939C588.509 280.985 588.618 279.975 588.516 278.976C587.972 269.664 574.884 254.688 562.212 240.256C552.612 229.12 543.268 218.592 540.964 211.904C529.572 178.848 525.892 140.736 529.988 98.528C530.66 91.616 532.036 84.512 533.412 77.6C535.276 69.1682 536.527 60.6125 537.156 52C537.252 46.6487 536.92 41.2984 536.164 36C535.044 26.4 533.988 17.12 537.86 8C539.268 5.06451 541.21 2.41676 543.588 0.192V0.192Z" fill="white"/><path d="M438.592 17.984C458.848 81.056 479.776 146.272 400.704 191.968C388.436 198.973 375.143 204.005 361.312 206.88C349.045 209.388 336.552 210.622 324.032 210.56C217.12 210.56 83.392 131.2 0 80.384V83.008C83.68 133.824 217.024 212.8 324.032 212.8C336.704 212.874 349.349 211.619 361.76 209.056C375.825 206.141 389.345 201.033 401.824 193.92C482.464 147.2 461.248 81.216 440.736 17.312C438.88 11.488 437.024 5.728 435.2 0H432.832C434.72 5.952 436.672 11.936 438.592 17.984Z" fill="white"/><path d="M29.8888 666.178C28.3208 655.874 21.2168 646.658 8.12875 637.986L0.00075 632.578V633.602L7.61675 638.658C20.4168 647.17 27.4248 656.162 28.9608 666.21C31.4888 682.786 18.8807 699.906 3.36075 718.946C2.33675 720.258 1.18475 721.826 -0.03125 723.522V725.186C1.47275 723.042 2.84875 721.122 4.12875 719.554C19.7767 700.45 32.5128 683.17 29.8888 666.178Z" fill="white"/><path d="M218.205 3.2C224.189 6.4 232.413 10.4 239.677 10.4C242.455 10.4822 245.191 9.71165 247.517 8.192L248.061 7.776C250.393 5.72482 252.045 3.01264 252.797 0L251.133 0C250.393 2.48978 248.948 4.71234 246.973 6.4L246.525 6.72C244.468 8.07316 242.042 8.75515 239.581 8.672C232.701 8.672 224.701 4.608 218.813 1.664C217.949 1.216 217.117 0.768 216.349 0.416L215.421 0H211.773L215.741 1.952L218.205 3.2Z" fill="white"/><path d="M58.208 677.021C66.528 653.629 58.208 644.253 20.48 619.421L11.424 613.373C7.488 610.589 3.712 607.997 0 605.469V606.653L10.912 614.077L19.968 620.093C57.12 644.733 65.408 653.949 57.312 676.701C49.984 697.277 35.808 714.749 20.8 733.213C13.792 741.821 6.688 750.589 0 759.965V761.597C6.88 751.805 14.272 742.685 21.536 733.789C36.608 715.261 50.816 697.757 58.208 677.021Z" fill="white"/><path d="M648.221 1121.83C690.685 1117 736.221 1067.81 736.797 1026.15C737.693 962.148 700.989 911.236 665.469 861.892C659.421 853.54 653.181 844.868 647.293 836.292L643.773 831.172C627.037 807.108 608.093 779.972 601.949 750.34C596.733 725.348 588.765 667.14 597.437 647.108C603.837 632.42 621.917 624.004 639.421 615.844C651.517 610.244 662.973 604.932 671.005 597.636L671.357 597.316C698.813 572.42 698.813 572.42 717.533 571.716C723.197 571.524 730.333 571.3 740.189 570.34C749.292 569.545 758.315 568.004 767.165 565.732C769.988 564.893 772.898 564.377 775.837 564.196C781.597 564.196 786.429 568.26 802.397 581.796C849.597 621.764 848.701 691.268 847.837 758.5C846.749 843.076 845.629 930.564 941.373 958.244C954.308 962.092 967.719 964.106 981.213 964.228C1017.21 964.228 1047.84 948.228 1069.82 917.732C1102.08 873.124 1110.65 803.46 1091.17 744.42C1046.14 608.164 938.557 530.244 822.813 456.004C717.661 388.516 617.469 369.924 531.837 357.796C526.029 356.958 520.17 356.519 514.301 356.484C479.581 356.484 463.101 374.148 442.173 396.484C433.781 405.756 424.915 414.589 415.613 422.948C403.837 433.284 388.861 440.388 374.397 447.236C350.781 458.404 328.477 468.932 319.261 492.388C299.709 542.148 347.741 580.9 390.141 615.108C409.757 631.108 428.285 645.924 439.133 660.868C482.205 720.132 469.309 820.068 430.269 876.228C418.077 893.732 394.717 915.428 370.013 938.372C329.053 976.388 282.621 1019.49 274.429 1055.68C270.557 1072.74 271.581 1084.48 277.629 1092.04C282.589 1098.24 290.941 1101.25 303.229 1101.25C323.357 1101.25 352.189 1092.96 382.685 1084.16C419.965 1073.44 462.237 1061.28 498.269 1061.28C513.187 1060.85 528.022 1063.64 541.757 1069.48C555.016 1076.08 567.444 1084.23 578.781 1093.76C597.565 1108.36 615.293 1122.15 640.381 1122.15C642.998 1122.17 645.615 1122.07 648.221 1121.83V1121.83ZM542.205 1068.13C528.257 1062.21 513.193 1059.37 498.045 1059.81C461.757 1059.81 419.389 1072 382.013 1082.76C351.613 1091.52 322.909 1099.78 303.005 1099.78C291.325 1099.78 283.389 1096.96 278.749 1091.17C273.149 1084.13 272.349 1072.71 275.965 1056.2C284.061 1020.45 330.365 977.54 371.101 939.684C395.869 916.676 419.293 894.884 431.581 877.252C470.941 820.676 483.901 719.876 440.445 660.036C429.469 644.932 410.845 629.892 391.133 613.988C349.181 580.132 301.533 541.764 320.733 493.092C329.725 470.244 351.741 459.812 375.133 448.804C389.725 441.892 404.797 434.788 416.733 424.292C426.06 415.893 434.956 407.028 443.389 397.732C464.029 375.652 480.349 358.212 514.365 358.212C520.16 358.231 525.946 358.669 531.677 359.524C617.149 371.62 717.277 390.18 822.045 457.476C937.501 531.556 1044.86 609.284 1089.69 745.06C1109.05 803.62 1100.57 872.708 1068.61 916.932C1046.94 946.916 1016.73 962.756 981.277 962.756C967.911 962.632 954.629 960.629 941.821 956.804C899.389 944.516 872.573 919.332 859.773 879.78C848.349 844.324 848.893 800.74 849.437 758.596C850.301 691.012 851.197 620.996 803.421 580.676C780.573 561.316 779.965 561.028 766.781 564.292C758.016 566.549 749.079 568.08 740.061 568.868C730.141 569.796 723.133 570.02 717.501 570.212C698.301 570.884 698.301 570.884 670.301 596.164L669.917 596.484C662.077 603.588 650.717 608.868 638.749 614.436C620.957 622.692 602.557 631.268 595.965 646.436C587.133 666.884 595.133 725.444 600.381 750.596C606.589 780.388 625.629 807.812 642.461 832.036L645.981 837.124C651.869 845.668 658.109 854.34 664.157 862.724C699.357 911.844 736.093 962.66 735.197 1025.92C734.621 1066.92 689.821 1115.27 648.029 1120.04C645.415 1120.33 642.788 1120.48 640.157 1120.48C615.613 1120.48 598.077 1106.88 579.549 1092.45C568.093 1083.75 556.253 1074.53 542.205 1068.13V1068.13Z" fill="white"/><path d="M1440 6.848C1435.2 4.384 1430.4 2.08 1425.31 0H1422.69C1428.61 2.4 1434.37 5.024 1440 7.936V6.848Z" fill="white"/><path d="M1396.44 629.055C1394.84 627.871 1392.32 625.695 1389.15 622.911C1376.96 612.319 1356.57 594.527 1342.24 594.527C1339.58 594.464 1336.97 595.202 1334.75 596.647C1332.52 598.091 1330.78 600.174 1329.76 602.623C1326.4 609.375 1333.76 625.023 1338.62 635.295C1339.8 637.823 1340.83 639.999 1341.47 641.695C1342.78 644.895 1343.96 647.903 1344.99 650.527C1352.36 668.873 1358.72 687.611 1364.03 706.655C1364.57 708.735 1365.08 711.071 1365.66 713.567C1368.03 724.223 1371 737.471 1378.46 743.967C1380.83 746.199 1383.66 747.891 1386.75 748.927C1387.9 749.277 1389.1 749.46 1390.3 749.471C1399 749.471 1404.99 739.583 1410.78 730.015C1412.09 727.839 1413.47 725.599 1414.81 723.615L1416.12 721.631C1438.17 688.063 1451.48 667.807 1410.94 639.647C1406.91 636.799 1401.79 632.959 1396.44 629.055ZM1414.68 720.543L1413.4 722.495C1412.03 724.607 1410.65 726.879 1409.31 729.055C1403.77 738.239 1398.01 747.743 1390.11 747.743C1389.02 747.745 1387.94 747.583 1386.91 747.263C1384.05 746.285 1381.43 744.702 1379.23 742.623C1372.25 736.479 1369.34 723.423 1367 713.119C1366.46 710.591 1365.92 708.223 1365.37 706.111C1360.03 687.004 1353.62 668.211 1346.17 649.823C1345.15 647.199 1343.93 644.191 1342.62 640.991C1341.95 639.359 1340.92 637.151 1339.74 634.591C1335.29 625.151 1327.87 609.343 1330.88 603.295C1331.76 601.113 1333.3 599.253 1335.27 597.966C1337.24 596.679 1339.56 596.026 1341.92 596.095C1355.68 596.095 1375.77 613.631 1387.77 624.095C1390.97 626.879 1393.5 629.087 1395.2 630.495C1400.54 634.399 1405.66 638.111 1409.63 640.863C1449.18 667.999 1436.19 687.775 1414.68 720.543V720.543Z" fill="white"/><path d="M1422.69 593.15C1415.62 587.998 1408.58 582.238 1401.12 576.126C1378.3 557.502 1352.45 536.414 1329.22 536.414C1324.68 536.41 1320.17 537.245 1315.94 538.878C1274.91 554.366 1280.74 597.758 1287.94 622.078C1292.32 637.022 1297.98 651.838 1303.46 666.142C1310.24 682.972 1316.09 700.16 1320.99 717.63C1323.52 728.348 1325.36 739.219 1326.5 750.174C1330.62 783.294 1334.53 814.558 1378.69 814.558C1382.18 814.558 1385.95 814.366 1389.89 813.982C1394.23 813.632 1398.52 812.817 1402.69 811.55C1414.43 807.774 1417.95 800.67 1423.26 789.886C1424.86 786.686 1426.69 782.91 1428.96 778.942C1432.35 772.98 1436.03 767.192 1440 761.598V759.934C1435.69 765.948 1431.69 772.175 1428 778.59C1425.73 782.59 1423.9 786.302 1422.27 789.566C1417.06 800.126 1413.63 807.102 1402.27 810.782C1398.21 812.003 1394.02 812.797 1389.79 813.15C1385.89 813.534 1382.14 813.726 1378.69 813.726C1335.36 813.726 1331.71 784.286 1327.49 750.174C1326.36 739.174 1324.51 728.26 1321.95 717.502C1317.03 700.005 1311.16 682.785 1304.38 665.918C1298.91 651.614 1293.25 636.862 1288.9 621.95C1281.82 597.758 1276.1 554.974 1316.29 539.742C1320.42 538.146 1324.82 537.332 1329.25 537.342C1352.16 537.342 1377.86 558.334 1400.54 576.862C1408 582.942 1415.07 588.702 1422.14 593.886C1427.49 597.79 1432.19 601.214 1435.71 603.646L1440.03 606.622V605.438L1436.26 602.846C1432.7 600.446 1428 597.022 1422.69 593.15Z" fill="white"/><path d="M1055.04 16.8617C1060.03 33.7578 1095.78 43.1018 1118.56 43.1018C1151.07 43.1018 1185.15 36.7018 1221.25 29.8858C1257.34 23.0698 1295.36 15.9977 1332.03 15.9977C1372.19 15.9977 1405.95 24.6058 1435.2 42.3018L1440 45.2138V43.3578C1438.69 42.5258 1437.31 41.6938 1436 40.9258C1406.53 23.0698 1372.51 14.3977 1332.03 14.3977C1295.23 14.3977 1257.47 21.5017 1220.96 28.3498C1184.45 35.1978 1150.91 41.5978 1118.56 41.5978C1095.78 41.5978 1061.15 31.9977 1056.58 16.5097C1055.04 11.3044 1056.88 5.83242 1062.11 0.09375H1060C1055.1 5.78975 1053.41 11.4217 1055.04 16.8617Z" fill="white"/><path d="M1324.96 127.777H1312.64H1301.21C1279.39 127.777 1262.05 128.961 1242.88 134.785C1233.05 138.081 1223.53 142.235 1214.43 147.201C1199.26 154.913 1184.96 162.209 1167.84 162.209C1164.98 162.214 1162.12 162.011 1159.29 161.601C1146.65 159.777 1137.18 152.321 1128.03 145.121C1117.76 137.025 1108.06 129.377 1094.43 129.377C1093.17 129.378 1091.91 129.442 1090.65 129.569C1082.27 130.433 1068.8 137.985 1055.81 145.313C1048.77 149.536 1041.46 153.278 1033.92 156.513C1027.8 158.759 1021.55 160.608 1015.2 162.049C1001.73 165.249 1000.03 166.433 993.502 191.201C991.71 198.049 990.302 204.449 989.118 210.625C984.414 233.601 980.702 251.617 956.222 268.801C939.678 280.481 918.718 286.145 892.222 286.145C865.726 286.145 838.302 280.641 813.982 275.745C801.182 273.217 789.246 270.817 780.35 269.857C775.166 269.313 767.166 268.961 758.974 268.961C735.486 268.961 707.966 277.569 706.046 289.921C705.118 295.745 709.694 304.545 736.638 313.153L739.614 314.113C842.238 347.009 913.822 389.985 986.686 462.369C1006.75 482.337 1022.11 491.649 1034.97 491.649C1037.97 491.648 1040.94 491.106 1043.74 490.049C1057.41 484.961 1067.36 467.649 1078.94 447.745C1084.89 437.441 1091.74 425.761 1099.65 414.497C1137.54 360.581 1192.59 321.1 1255.81 302.497C1273.02 297.439 1290.86 294.8 1308.8 294.657C1364.06 294.657 1403.07 321.729 1440 349.569V347.553C1403.13 319.809 1364.13 293.153 1308.8 293.153C1290.66 293.311 1272.63 295.992 1255.23 301.121C1191.65 319.852 1136.3 359.582 1098.21 413.825C1090.17 425.121 1083.39 436.833 1077.44 447.169C1066.05 466.881 1056.22 483.905 1043.1 488.769C1040.47 489.737 1037.68 490.235 1034.88 490.241C1022.46 490.241 1007.49 481.089 987.71 461.441C914.654 388.865 842.91 345.793 740.03 312.801L737.022 311.841C716.862 305.441 706.366 297.761 707.518 290.401C709.118 280.129 733.598 270.785 758.878 270.785C767.006 270.785 774.878 271.137 780.062 271.681C788.926 272.609 800.894 274.881 813.566 277.569C837.95 282.337 865.598 288.001 892.126 288.001C918.654 288.001 940.35 282.241 957.15 270.369C982.142 252.673 985.95 234.273 990.686 210.945C991.966 204.769 993.246 198.401 995.07 191.745C1001.47 167.073 1002.88 166.753 1015.55 163.713C1021.97 162.275 1028.29 160.415 1034.46 158.145C1042.09 154.886 1049.48 151.101 1056.57 146.817C1068.86 139.937 1082.75 132.129 1090.81 131.297C1092.02 131.17 1093.22 131.106 1094.43 131.105C1107.49 131.105 1116.99 138.593 1127.07 146.497C1136.38 153.825 1145.98 161.409 1159.07 163.297C1161.99 163.715 1164.93 163.929 1167.87 163.937C1185.37 163.937 1200.51 156.225 1215.17 148.769C1224.19 143.839 1233.64 139.717 1243.39 136.449C1262.33 130.689 1279.58 129.505 1301.25 129.505H1312.64H1324.99C1343.05 129.319 1361.05 131.668 1378.46 136.481C1399.59 142.723 1420.17 150.675 1440 160.257V158.465C1420.29 148.957 1399.85 141.049 1378.88 134.817C1361.32 129.953 1343.17 127.583 1324.96 127.777Z" fill="white"/><path d="M1423.45 621.277C1419.74 618.717 1414.72 615.069 1409.47 611.229C1401.95 605.725 1394.68 599.805 1387.07 593.469C1385.34 592.061 1383.42 590.461 1381.4 588.733C1368.6 577.789 1350.84 562.813 1334.62 562.813C1330.25 562.788 1325.95 563.997 1322.24 566.301C1294.17 583.645 1311.04 625.117 1321.15 649.917C1322.36 652.925 1323.52 655.773 1324.35 658.301C1331.44 675.888 1337.55 693.858 1342.65 712.125C1343.58 715.645 1344.51 719.805 1345.47 724.189C1349.95 744.285 1356.09 771.837 1371.48 781.789C1373.88 783.366 1376.59 784.404 1379.42 784.829C1380.25 784.931 1381.08 784.984 1381.92 784.989C1400.73 784.989 1419.48 756.413 1433.12 735.517C1435.61 731.741 1437.85 728.317 1439.93 725.341V723.677C1437.66 726.877 1435.13 730.717 1432.32 735.005C1418.75 755.709 1400.16 784.029 1381.85 784.029C1381.06 784.024 1380.27 783.971 1379.48 783.869C1376.78 783.478 1374.21 782.495 1371.93 780.989C1356.89 771.389 1350.81 743.965 1346.33 723.997C1345.34 719.613 1344.41 715.453 1343.48 711.901C1338.39 693.597 1332.27 675.595 1325.15 657.981C1324.19 655.453 1323.04 652.605 1321.79 649.597C1311.84 625.085 1295.13 584.093 1322.52 567.133C1326.11 564.98 1330.22 563.871 1334.4 563.933C1350.4 563.933 1367.77 578.781 1380.57 589.533C1382.59 591.261 1384.48 592.733 1386.27 594.333C1393.98 600.733 1401.24 606.557 1408.67 612.061C1413.92 615.901 1418.94 619.549 1422.68 622.141C1427.68 625.597 1432.7 629.021 1438.11 632.669L1439.77 633.789V632.637L1438.59 631.837C1433.6 628.157 1428.44 624.733 1423.45 621.277Z" fill="white"/><path d="M1257.12 848.383C1258.91 850.751 1262.34 854.015 1270.88 854.783C1302.88 857.407 1351.2 861.375 1392 898.559L1392.48 898.975C1406.94 912.439 1418.41 928.792 1426.15 946.975C1428.48 952.223 1432.26 955.263 1436.48 955.263C1437.69 955.253 1438.89 955.003 1440 954.527V953.375C1438.92 953.954 1437.71 954.272 1436.48 954.303C1432.64 954.303 1429.19 951.487 1427.04 946.591C1419.23 928.311 1407.68 911.872 1393.12 898.335L1392.64 897.887C1351.59 860.511 1303.04 856.543 1271.04 853.887C1262.88 853.247 1259.68 850.207 1257.95 847.967C1254.79 843.263 1253.35 837.612 1253.86 831.967C1258.31 812.383 1263.84 787.999 1261.76 761.311C1258.24 716.159 1240.19 677.375 1222.72 639.711C1208.71 609.599 1192.83 575.455 1198.34 559.903C1208.16 532.191 1248.29 492.511 1265.09 476.703C1275.17 466.918 1288.7 461.493 1302.75 461.599C1309.47 461.648 1316.14 462.727 1322.53 464.799C1351.97 474.399 1393.63 496.031 1440.1 525.887V524.799C1393.79 495.071 1352.23 473.407 1322.82 463.999C1316.34 461.905 1309.57 460.826 1302.75 460.799C1288.43 460.672 1274.63 466.204 1264.35 476.191C1247.52 491.999 1207.27 531.839 1197.38 559.743C1191.75 575.743 1207.71 609.983 1221.79 640.287C1239.23 677.727 1257.25 716.447 1260.74 761.439C1262.79 787.967 1257.28 812.255 1252.83 831.839C1252.36 837.679 1253.87 843.509 1257.12 848.383Z" fill="white"/><path d="M1020.13 49.632C1047.75 66.976 1079.94 75.424 1118.56 75.424C1154.08 75.424 1191.27 68.416 1227.2 61.664C1262.21 55.072 1298.4 48.288 1332.03 48.288C1366.15 48.288 1394.4 55.36 1418.43 69.92L1431.65 77.92L1440 83.008V80.384L1432.8 76L1419.62 68C1395.2 53.216 1366.56 46.048 1332.03 46.048C1298.18 46.048 1261.89 52.864 1226.79 59.456C1190.95 66.208 1153.86 73.184 1118.56 73.184C1080.39 73.184 1048.58 64.864 1021.35 47.584C1003.04 36.096 994.21 24 995.074 11.68C995.467 7.55827 996.756 3.57215 998.85 0L996.354 0C994.396 3.6124 993.198 7.58729 992.834 11.68C992.002 24.896 1001.09 37.664 1020.13 49.632Z" fill="white"/><path d="M1317.34 819.393C1324.64 823.393 1334.62 825.089 1344.32 826.721C1351.3 827.698 1358.18 829.261 1364.9 831.393C1369.15 833.049 1373.32 834.929 1377.38 837.025C1386.53 841.537 1396.93 846.625 1406.43 846.625C1408.18 846.628 1409.93 846.446 1411.65 846.081L1412.96 845.729C1426.53 841.697 1433.76 824.673 1440 809.057V806.401V806.657C1433.6 822.657 1426.5 840.673 1412.8 844.737L1411.58 845.057C1409.94 845.434 1408.25 845.617 1406.56 845.601C1397.31 845.601 1387.01 840.545 1377.92 836.001C1373.83 833.886 1369.63 831.984 1365.34 830.305C1358.58 828.161 1351.64 826.598 1344.61 825.633C1335.01 824.001 1325.09 822.433 1317.95 818.401C1302.14 809.729 1303.78 793.857 1305.54 777.057C1306.4 770.567 1306.7 764.015 1306.43 757.473C1302.3 704.225 1282.53 661.697 1263.39 620.577C1259.11 611.627 1256.74 601.883 1256.43 591.966C1256.12 582.049 1257.88 572.176 1261.6 562.977C1265.96 552.772 1272.37 543.572 1280.44 535.948C1288.5 528.324 1298.05 522.439 1308.48 518.657C1315.14 516.118 1322.21 514.817 1329.34 514.817C1360.22 514.817 1389.22 538.497 1414.78 559.361C1422.05 565.281 1428.9 570.881 1435.46 575.649L1440 579.201V578.017L1435.87 575.009C1429.47 570.241 1422.53 564.673 1415.26 558.753C1389.66 537.761 1360.45 513.953 1329.22 513.953C1321.96 513.956 1314.78 515.279 1308 517.857C1297.45 521.678 1287.79 527.626 1279.64 535.333C1271.48 543.039 1264.99 552.34 1260.58 562.657C1256.81 571.979 1255.03 581.984 1255.34 592.033C1255.65 602.083 1258.06 611.956 1262.4 621.025C1281.6 662.049 1301.25 704.513 1305.34 757.569C1305.61 764.058 1305.31 770.557 1304.45 776.993C1302.75 793.601 1300.99 810.401 1317.34 819.393Z" fill="white"/><path d="M1324.96 160.001C1298.05 160.001 1269.41 164.897 1239.07 170.081C1204.93 175.905 1169.6 181.921 1132 181.921C1129.28 181.921 1126.59 181.921 1124 181.921C1112.6 181.457 1101.26 180.001 1090.11 177.569C1082.64 175.78 1075.03 174.709 1067.36 174.369C1050.75 174.369 1038.56 183.137 1025.18 204.577C1018.88 215.624 1013.63 227.238 1009.5 239.265C1001.47 260.417 993.181 282.273 974.813 295.233C968.413 299.713 956.413 303.169 943.613 306.817C921.213 313.217 895.869 320.449 892.413 335.617C888.125 354.529 927.005 380.417 947.901 394.369C951.805 396.961 955.165 399.201 957.501 400.769C981.981 418.753 1002.3 430.721 1021.5 430.721C1024.11 430.724 1026.71 430.499 1029.28 430.049C1044.67 427.265 1058.62 416.417 1073.21 395.841C1115.37 335.948 1176.56 292.086 1246.81 271.393C1266.96 265.532 1287.82 262.506 1308.8 262.401C1364 262.401 1404.8 284.801 1440 309.537V308.353C1404.8 283.585 1364 261.441 1308.8 261.441C1287.7 261.598 1266.73 264.7 1246.49 270.657C1176.01 291.384 1114.63 335.375 1072.35 395.457C1057.92 415.809 1044.16 426.529 1029.05 429.249C1026.54 429.698 1023.99 429.922 1021.44 429.921C1002.43 429.921 982.301 418.017 957.949 400.161C955.741 398.529 952.381 396.289 948.349 393.761C927.645 379.969 889.085 354.305 893.245 336.001C896.445 321.441 921.629 314.305 943.741 308.001C956.541 304.321 968.797 300.833 975.229 296.289C993.821 283.169 1002.17 261.089 1010.27 239.841C1014.39 227.886 1019.61 216.338 1025.85 205.345C1039.01 184.225 1051.01 175.585 1067.23 175.585C1074.83 175.943 1082.39 177.014 1089.79 178.785C1101 181.245 1112.4 182.712 1123.87 183.169C1126.46 183.169 1129.15 183.169 1131.87 183.169C1169.57 183.169 1204.93 177.153 1239.13 171.297C1269.41 166.145 1297.98 161.249 1324.83 161.249C1339.96 161.06 1355.04 162.999 1369.63 167.009C1393.93 174.427 1417.5 184.068 1440.03 195.809V194.721C1417.62 183.087 1394.18 173.553 1370.01 166.241C1355.36 162.051 1340.19 159.95 1324.96 160.001Z" fill="white"/><path d="M1296.64 836.644C1303.04 838.276 1309.44 839.844 1315.84 841.188C1349.31 848.964 1378.2 855.652 1407.1 881.796L1407.68 882.34C1414.3 888.356 1419.55 891.268 1423.68 891.268C1424.3 891.276 1424.93 891.201 1425.53 891.044C1431.93 889.604 1434.94 880.836 1438.33 869.54C1438.84 867.812 1439.42 866.052 1440 864.324V861.124C1439.1 863.812 1438.24 866.532 1437.4 869.252C1434.04 880.228 1431 888.74 1425.28 890.084C1421.12 891.076 1415.68 888.292 1408.22 881.572L1407.64 881.06C1378.56 854.724 1349.56 848.004 1315.96 840.228C1309.79 838.788 1303.39 837.316 1296.76 835.684C1273.28 829.796 1277.24 807.716 1281.08 786.372C1283.1 777.504 1284.04 768.424 1283.87 759.332C1280.06 710.148 1261.15 669.476 1242.84 630.148C1240.67 625.444 1238.33 620.836 1236.06 616.388C1224.28 593.348 1214.14 573.412 1228.67 548.9C1239.58 530.468 1255.93 515.364 1271.77 500.9C1274.62 498.276 1277.47 495.652 1280.25 493.028C1287.05 487.048 1295.91 483.949 1304.96 484.388C1344.38 484.388 1405.02 526.34 1439.9 551.588V550.404C1404.8 524.964 1344.54 483.204 1305.05 483.204C1295.76 482.767 1286.66 485.956 1279.68 492.1C1276.89 494.724 1274.04 497.348 1271.2 499.972C1255.2 514.628 1238.91 529.764 1227.93 548.324C1213.15 573.284 1223.9 594.404 1235.29 616.74C1237.56 621.188 1239.9 625.764 1242.08 630.468C1260.35 669.7 1279.23 710.308 1283.04 759.332C1283.17 768.338 1282.23 777.329 1280.25 786.116C1276.35 808.004 1272.28 830.532 1296.64 836.644Z" fill="white"/><path d="M623.2 1297.48C615.104 1309.67 605.056 1324.87 608.512 1335.37C609.416 1337.68 610.847 1339.75 612.691 1341.42C614.535 1343.09 616.742 1344.3 619.136 1344.97C620.246 1345.36 621.416 1345.55 622.592 1345.54C634.976 1345.54 654.592 1326.34 671.808 1309.61C682.816 1298.89 693.184 1288.77 699.424 1285.93C729.28 1272.39 770.4 1265.96 806.688 1260.33C821.024 1258.09 834.528 1255.94 847.04 1253.51C873.951 1248.09 901.319 1245.27 928.768 1245.09C1013.02 1245.09 1083.81 1275.43 1139.1 1335.24C1145.28 1341.96 1154.3 1345.35 1165.89 1345.35C1201.98 1345.35 1263.9 1310.15 1307.52 1245.09C1333.6 1206.15 1371.52 1126.5 1332.1 1030.85C1316.29 992.453 1292.83 974.661 1258.27 974.661C1231.94 974.661 1201.92 984.261 1167.17 995.525C1124.42 1009.32 1075.94 1024.93 1023.81 1024.93C984 1025.12 944.786 1015.27 909.792 996.293C798.464 936.933 795.2 828.581 804.832 740.869C808.544 706.725 802.496 679.717 787.264 662.757C781.952 656.823 775.416 652.111 768.108 648.945C760.799 645.78 752.891 644.236 744.928 644.421C712.928 644.421 672.704 669.381 658.24 717.029C644.64 761.829 676.896 802.693 714.272 849.925C756.384 903.173 804.128 963.525 794.88 1044.07C790.272 1084.01 775.68 1122.31 755.872 1146.47C740.832 1164.87 727.552 1166.5 713.472 1168.23C702.72 1169.57 691.616 1170.92 678.592 1179.21C668.64 1185.61 665.536 1196.23 662.208 1207.62C660.388 1215.62 657.206 1223.26 652.8 1230.18C650.176 1233.83 645.6 1234.63 640.768 1235.46C634.368 1236.58 627.2 1237.83 623.36 1246.05C620.704 1251.78 624.224 1258.53 627.616 1265.06C630.432 1270.5 633.376 1276.13 632.512 1280.81C631.808 1284.52 627.808 1290.53 623.2 1297.48ZM629.248 1264.17C626.048 1257.77 622.848 1251.72 625.024 1246.79C628.448 1239.46 634.88 1238.34 641.024 1237.19C646.016 1236.33 651.168 1235.43 654.24 1231.17C658.726 1224.06 661.972 1216.24 663.84 1208.04C667.04 1197 670.048 1186.6 679.424 1180.65C692.224 1172.61 702.976 1171.27 713.536 1169.96C727.968 1168.2 741.632 1166.5 757.12 1147.56C777.184 1123.05 791.904 1084.36 796.544 1044.1C805.888 962.789 757.888 902.117 715.552 848.581C678.496 801.765 646.528 761.317 659.84 717.381C674.048 670.565 713.312 646.085 744.768 646.085C752.469 645.903 760.117 647.39 767.187 650.445C774.258 653.5 780.583 658.049 785.728 663.781C800.608 680.357 806.496 706.885 802.816 740.581C793.216 828.901 796.416 937.957 908.768 997.861C944.026 1016.98 983.541 1026.89 1023.65 1026.66C1076.06 1026.66 1124.7 1011.01 1167.65 997.189C1202.24 986.021 1232.13 976.389 1258.18 976.389C1292.35 976.389 1314.59 993.381 1330.27 1031.46C1369.34 1126.31 1331.78 1205.32 1305.89 1243.97C1264.29 1306.21 1201.92 1343.4 1165.79 1343.4C1154.75 1343.4 1146.18 1340.2 1140.35 1333.8C1084.8 1273.61 1013.57 1243.14 928.768 1243.14C901.202 1243.3 873.715 1246.12 846.688 1251.56C834.24 1254.02 820.704 1256.13 806.4 1258.37C769.984 1264.07 728.736 1270.53 698.656 1284.17C692.256 1287.11 682.112 1296.97 670.528 1308.2C653.504 1324.81 634.208 1343.59 622.528 1343.59C621.56 1343.61 620.596 1343.46 619.68 1343.14C617.532 1342.61 615.54 1341.58 613.87 1340.13C612.201 1338.67 610.901 1336.84 610.08 1334.79C606.88 1325.19 616.672 1310.37 624.544 1298.5C629.28 1291.37 633.344 1285.22 634.144 1281.09C635.296 1275.81 632.224 1269.89 629.248 1264.17V1264.17Z" fill="white"/><path d="M1396.61 1079.07C1402.41 1082.08 1408.9 1083.48 1415.43 1083.13C1423.76 1083.02 1432.04 1081.71 1440 1079.23V1076.86C1432.06 1079.42 1423.77 1080.78 1415.43 1080.89C1409.34 1081.22 1403.27 1079.94 1397.83 1077.18C1379.04 1065.18 1370.72 1043.96 1361.92 1021.53C1354.34 1002.17 1346.5 982.14 1331.23 968.028V967.356H1330.56C1313.06 951.9 1289.44 944.38 1258.4 944.38C1228.13 944.38 1196.29 951.644 1170.72 957.5C1153.22 961.468 1138.15 964.924 1128.42 964.924C1122.72 964.924 1119.23 963.74 1117.79 961.34C1115.91 958.14 1117.35 952.092 1122.08 943.42C1144.19 903.068 1188.83 806.812 1185.76 766.972C1183.33 735.548 1168.23 702.972 1153.6 671.676C1132.42 626.268 1110.56 579.196 1126.4 534.396C1144.58 483.196 1224.61 391.58 1281.57 383.804C1285.1 383.343 1288.66 383.118 1292.23 383.132C1329.25 383.132 1383.46 405.212 1439.94 437.18V434.78C1383.43 402.78 1329.28 380.892 1292.23 380.892C1288.56 380.873 1284.89 381.108 1281.25 381.596C1223.65 389.468 1142.63 481.916 1124.29 533.628C1108.07 579.388 1130.15 626.812 1151.49 672.7C1166.02 703.9 1181.03 736.188 1183.49 767.196C1186.24 802.716 1147.3 892.764 1120.1 942.428C1114.79 952.028 1113.44 958.428 1115.84 962.556C1117.73 965.756 1121.83 967.228 1128.39 967.228C1138.37 967.228 1153.57 963.772 1171.17 959.74C1196.77 953.916 1228.35 946.684 1258.37 946.684C1289.03 946.684 1312.26 954.108 1329.38 969.404C1344.48 983.196 1352.29 1003.1 1359.84 1022.4C1368.77 1045.15 1377.22 1066.68 1396.61 1079.07Z" fill="white"/><path d="M668.801 1264.01C672.215 1264.67 675.693 1264.95 679.169 1264.84C688.929 1264.84 725.057 1263.4 781.377 1244.77C831.516 1228.75 883.842 1220.61 936.481 1220.65C1023.58 1220.65 1081.47 1233.7 1156 1305.06C1161.74 1310.28 1169.31 1313.02 1177.06 1312.68C1209.47 1312.68 1258.46 1277.48 1288.61 1232.39C1312.16 1197.19 1346.37 1125.41 1311.01 1039.56C1295.78 1002.63 1276.67 997.51 1258.3 997.51C1235.58 997.51 1207.1 1006.66 1174.21 1017.29C1129.86 1031.59 1079.58 1047.78 1023.81 1047.78C980.24 1048 937.317 1037.24 899.009 1016.49C774.209 949.926 772.513 825.894 782.081 738.406C785.057 711.302 780.833 689.862 770.241 678.022C767.053 674.496 763.133 671.709 758.755 669.857C754.377 668.006 749.647 667.133 744.897 667.302C721.185 667.302 691.297 686.694 680.065 723.686C669.921 757.158 698.753 793.574 732.129 835.686C774.817 889.606 827.905 956.806 817.569 1046.41C814.76 1071.62 807.853 1096.21 797.121 1119.21C781.401 1153.53 758.864 1184.3 730.881 1209.64C715.654 1222.81 699.279 1234.59 681.953 1244.84C670.017 1252.26 662.753 1256.74 663.329 1260.13C663.553 1261.83 665.281 1262.95 668.801 1264.01ZM682.529 1245.99C699.889 1235.73 716.305 1223.95 731.585 1210.79C759.659 1185.35 782.28 1154.47 798.081 1120.04C808.834 1096.95 815.762 1072.26 818.593 1046.95C828.801 956.358 775.681 889.062 732.801 835.014C699.585 793.03 670.913 756.774 680.897 723.814C692.001 687.238 721.441 668.102 744.897 668.102C749.513 667.938 754.11 668.784 758.366 670.58C762.621 672.376 766.434 675.08 769.537 678.502C779.937 690.15 784.065 711.302 781.121 738.15C771.521 825.894 773.217 950.342 898.561 1017.19C936.996 1038.02 980.061 1048.83 1023.78 1048.61C1079.68 1048.61 1130.02 1032.36 1174.5 1018.02C1207.33 1007.46 1235.65 998.31 1258.24 998.31C1276.29 998.31 1295.04 1003.33 1310.05 1039.91C1345.25 1125.35 1311.14 1196.71 1287.65 1231.91C1258.14 1275.94 1208.48 1311.75 1176.9 1311.75C1169.4 1312.1 1162.06 1309.45 1156.51 1304.39C1120.38 1269.8 1086.75 1247.81 1050.72 1235.21C1019.68 1224.36 985.473 1219.72 936.321 1219.72C883.583 1219.68 831.16 1227.84 780.929 1243.91C724.705 1262.47 688.705 1263.91 679.009 1263.91C675.608 1264.01 672.207 1263.74 668.865 1263.11C665.921 1262.34 664.353 1261.41 664.193 1260.33C663.873 1257.38 671.649 1252.52 682.465 1245.83L682.529 1245.99Z" fill="white"/><path d="M594.819 0.00075H592.451C587.284 18.6156 583.804 37.6578 582.051 56.8968C578.499 92.9608 575.363 140.097 582.755 185.793C588.131 219.009 598.947 233.793 617.955 233.793C629.987 233.793 643.971 227.969 660.163 221.217C671.63 216.106 683.396 211.693 695.395 208.001L698.979 207.041C734.403 197.441 774.339 196.193 816.707 203.041C828.182 205.158 839.537 207.882 850.723 211.201C866.979 215.713 883.779 220.353 900.835 221.089C910.083 221.505 916.675 220.577 921.315 218.241C934.947 211.457 928.323 194.529 921.315 176.641C917.187 166.049 912.899 155.073 912.195 145.249C908.451 93.0247 937.603 45.4408 976.195 -0.03125H973.251C935.011 45.3448 906.211 92.9607 909.987 145.409C910.691 155.585 915.043 166.689 919.267 177.409C926.179 195.105 932.067 210.369 920.355 216.225C914.2 218.661 907.544 219.561 900.963 218.849C884.163 218.113 867.491 213.505 851.363 209.057C840.096 205.716 828.655 202.992 817.091 200.897C774.403 193.985 734.147 195.361 698.435 204.929L694.819 205.921C682.694 209.612 670.801 214.025 659.203 219.137C643.203 225.793 629.443 231.553 617.859 231.553C600.323 231.553 590.179 217.345 584.995 185.441C577.667 140.129 580.771 93.0568 584.323 57.1208C586.069 37.8 589.582 18.68 594.819 0.00075V0.00075Z" fill="white"/><path d="M526.978 631.935C529.73 631.935 531.906 628.031 534.082 619.327C542.114 586.655 568.642 543.423 609.826 520.415C651.426 497.151 679.33 491.103 694.242 487.871C701.666 486.271 705.378 485.439 706.274 483.487C706.437 483.051 706.493 482.582 706.437 482.12C706.381 481.658 706.216 481.216 705.954 480.831C703.074 475.583 651.554 446.687 577.122 440.671L573.922 440.415C567.234 439.871 561.442 439.391 555.906 439.391C536.546 439.391 520.898 444.831 484.418 475.647C478.658 480.511 472.77 485.023 467.074 489.375C449.442 502.911 434.21 514.591 435.074 527.775C435.842 537.951 445.89 548.063 466.786 559.551C489.89 572.351 503.97 597.567 513.282 614.271C519.394 624.927 523.298 631.935 526.978 631.935ZM467.426 558.783C447.138 547.583 436.93 537.439 436.226 527.775C435.266 514.975 450.306 503.487 467.714 490.143C473.442 485.759 479.33 481.247 485.122 476.351C521.346 445.759 536.834 440.351 555.97 440.351C561.474 440.351 567.234 440.831 573.922 441.375L577.122 441.631C649.698 447.487 702.434 476.287 705.122 481.279C705.698 482.303 705.57 482.815 705.442 483.103C704.738 484.607 700.738 485.471 694.082 486.943C679.106 490.143 651.202 496.255 609.41 519.583C567.618 542.911 541.25 586.239 533.154 619.071C531.202 627.103 529.186 630.975 527.01 630.975C523.81 630.975 519.682 623.423 514.21 613.887C504.962 597.055 490.786 571.647 467.426 558.783Z" fill="white"/><path d="M533.023 686.879C535.807 686.879 537.727 683.679 539.071 676.383C547.391 632.319 565.375 569.919 625.471 536.639C645.74 525.675 667.306 517.3 689.663 511.711C695.195 509.741 700.387 506.923 705.055 503.359C711.679 498.911 718.559 494.271 724.895 494.271C725.614 494.272 726.331 494.336 727.039 494.463C730.376 495.263 733.458 496.892 735.999 499.199C738.521 501.699 741.838 503.238 745.375 503.551C746.892 503.52 748.389 503.206 749.791 502.623C752.125 501.53 754.045 499.712 755.263 497.439C756.029 495.722 757.333 494.299 758.978 493.388C760.623 492.476 762.52 492.123 764.383 492.383C769.791 492.831 772.703 496.959 775.775 501.311C777.681 504.486 780.259 507.205 783.327 509.279C786.462 510.925 789.931 511.834 793.471 511.935C794.467 512.046 795.475 511.922 796.415 511.572C797.354 511.221 798.198 510.656 798.879 509.919C799.372 509.123 799.672 508.222 799.755 507.288C799.839 506.355 799.703 505.415 799.359 504.543C797.279 496.991 781.087 489.951 770.399 485.343C767.199 483.967 764.479 482.783 762.751 481.855C746.751 473.407 730.751 466.239 717.439 460.351C660.735 435.551 609.055 420.415 559.423 414.079C554.511 413.419 549.562 413.067 544.607 413.023C520.159 413.023 501.215 423.711 463.519 458.783C454.271 467.391 444.735 474.783 435.551 481.919C414.911 497.919 398.623 510.559 399.007 526.463C399.327 539.039 410.239 552.415 433.311 568.575C470.495 594.591 495.199 634.111 511.519 660.255C521.599 676.255 528.191 686.879 533.023 686.879ZM433.823 567.647C410.975 551.647 400.223 538.559 399.903 526.335C399.551 510.911 415.647 498.399 436.063 482.559C445.279 475.391 454.815 467.999 464.095 459.359C501.599 424.479 520.383 413.855 544.543 413.855C549.456 413.898 554.362 414.251 559.231 414.911C608.767 421.311 660.383 436.351 716.991 461.119C730.431 467.007 746.303 474.143 762.239 482.559C763.999 483.519 766.751 484.703 769.951 486.079C780.479 490.687 796.415 497.631 798.367 504.735C798.67 505.466 798.799 506.256 798.744 507.045C798.688 507.834 798.449 508.599 798.047 509.279C797.437 509.87 796.706 510.321 795.905 510.603C795.104 510.885 794.252 510.99 793.407 510.911C790.054 510.794 786.772 509.919 783.807 508.351C780.861 506.367 778.391 503.755 776.575 500.703C773.375 496.351 770.175 491.871 764.479 491.359C762.44 491.082 760.366 491.468 758.562 492.459C756.759 493.45 755.322 494.994 754.463 496.863C753.346 498.961 751.585 500.644 749.439 501.663C748.15 502.2 746.77 502.482 745.375 502.495C742.053 502.176 738.944 500.717 736.575 498.367C733.967 496.012 730.809 494.351 727.391 493.535C726.633 493.38 725.86 493.305 725.087 493.311C718.431 493.311 711.455 498.015 704.703 502.559C700.141 506.074 695.055 508.849 689.631 510.783C667.194 516.407 645.545 524.802 625.183 535.775C564.639 569.279 546.527 631.967 538.175 676.191C536.959 682.751 535.295 685.791 533.087 685.791C528.767 685.791 521.887 674.751 512.351 659.487C495.999 633.407 471.135 593.791 433.823 567.647V567.647Z" fill="white"/><path d="M651.234 1088.38C662.483 1086.82 673.17 1082.5 682.339 1075.8C691.508 1069.09 698.874 1060.23 703.778 1049.98C712.93 1031.01 717.89 998.783 689.474 953.247C677.282 933.695 663.874 913.919 651.074 894.815C614.274 840.191 579.522 788.575 565.154 736.799C548.93 678.239 561.954 629.919 606.178 584.767C644.578 545.663 695.074 523.231 745.026 523.231C782.562 523.231 816.066 536.447 839.33 560.415C864.93 586.783 877.73 625.311 876.29 671.903C875.97 682.719 875.458 693.887 874.914 705.695C872.962 747.743 870.786 795.295 877.57 835.039C885.378 880.639 903.906 908.639 934.178 921.151C948.633 927.411 964.159 930.822 979.906 931.199C992.261 931.334 1004.46 928.46 1015.46 922.823C1026.45 917.186 1035.91 908.957 1043.01 898.847C1069.6 862.847 1075.97 801.215 1058.85 745.471C1022.15 625.855 934.05 554.431 803.458 477.983C704.258 419.903 620.642 401.983 544.93 391.263C539.632 390.484 534.285 390.078 528.93 390.047C497.346 390.047 482.274 406.047 463.234 426.527C455.906 434.367 448.354 442.527 438.978 450.719C430.107 458.372 420.552 465.195 410.434 471.103C397.09 479.327 385.57 486.399 372.898 505.343C347.746 542.943 381.41 566.143 417.026 590.431C435.874 603.231 455.426 616.671 465.762 632.479C531.298 731.679 504.866 837.695 458.242 903.711C444.93 922.559 425.474 940.383 404.866 959.263C379.682 982.335 353.666 1006.17 338.754 1032.86C332.354 1044.32 330.53 1052.06 333.186 1056.64C335.138 1059.84 339.586 1061.6 346.338 1061.6C358.626 1061.6 378.146 1056.51 400.738 1050.59C432.45 1042.33 471.906 1032.03 506.786 1032.03C522.922 1031.58 538.968 1034.57 553.858 1040.8C565.979 1046.84 577.343 1054.3 587.714 1063.01C604.802 1076.32 620.962 1088.89 643.81 1088.89C646.293 1088.87 648.772 1088.7 651.234 1088.38V1088.38ZM554.338 1040C539.34 1033.67 523.152 1030.66 506.882 1031.17C471.874 1031.17 432.354 1041.47 400.578 1049.76C378.018 1055.65 358.562 1060.73 346.402 1060.73C340.002 1060.73 335.842 1059.26 334.082 1056.25C331.586 1052.03 333.41 1044.57 339.65 1033.44C354.466 1006.94 380.45 983.135 405.602 960.127C426.242 941.215 445.73 923.359 459.106 904.415C485.969 866.861 502.048 822.674 505.602 776.639C509.218 725.439 496.002 676.767 466.498 631.935C455.97 615.935 436.418 602.591 417.506 589.631C382.306 565.471 348.994 542.687 373.634 505.855C386.21 487.103 397.634 480.063 410.85 471.935C421.067 466.008 430.709 459.141 439.65 451.423C448.185 443.767 456.313 435.671 464.002 427.167C482.882 406.975 497.826 391.007 528.994 391.007C534.296 391.039 539.589 391.446 544.834 392.223C620.45 402.911 704.034 420.831 802.978 478.815C933.25 555.135 1021.35 626.431 1057.99 745.727C1075.01 801.215 1068.71 862.527 1042.27 898.271C1035.27 908.27 1025.93 916.41 1015.07 921.986C1004.2 927.562 992.147 930.406 979.938 930.271C964.338 929.926 948.952 926.568 934.626 920.383C904.674 908.191 886.338 880.255 878.594 835.007C871.81 795.455 873.986 747.871 875.938 705.887C876.482 694.047 876.994 682.879 877.314 672.031C878.722 625.215 865.858 586.431 840.098 559.871C816.642 535.711 782.914 522.399 745.09 522.399C694.882 522.399 644.034 544.799 605.57 584.223C582.082 608.223 567.554 632.959 561.218 659.903C555.554 683.967 556.546 709.247 564.418 737.183C578.818 789.119 613.602 840.767 650.466 895.487C663.266 914.687 676.642 934.335 688.866 953.887C717.058 999.103 712.162 1030.94 703.106 1049.69C698.257 1059.77 690.994 1068.5 681.961 1075.09C672.928 1081.68 662.406 1085.94 651.33 1087.49C648.928 1087.75 646.515 1087.89 644.098 1087.9C621.698 1087.9 605.698 1075.42 588.578 1062.3C578.091 1053.53 566.597 1046.05 554.338 1040V1040Z" fill="white"/><path d="M934.684 745.253C931.484 795.301 945.756 829.765 960.284 845.317C966.94 852.421 974.268 856.325 980.86 856.357C990.172 856.357 997.18 849.029 1000.57 835.717C1022.43 750.053 947.996 659.717 938.876 652.197C936.22 650.021 934.428 649.733 933.244 651.013C931.1 653.349 931.772 660.997 932.988 674.885C935.401 698.26 935.968 721.789 934.684 745.253V745.253ZM934.396 652.101C934.464 652.023 934.547 651.959 934.641 651.915C934.735 651.871 934.837 651.847 934.94 651.845C935.388 651.845 936.252 652.133 937.82 653.413C946.876 660.901 1020.67 750.405 999.004 835.333C995.804 847.845 989.404 854.757 980.828 854.757C974.684 854.757 967.772 851.013 961.436 844.197C947.1 828.901 932.956 794.917 936.22 745.349C937.514 721.801 936.958 698.187 934.556 674.725C933.564 662.661 932.796 653.925 934.396 652.101Z" fill="white"/><path d="M1324.96 182.4C1299.93 182.4 1272.19 187.136 1242.85 192C1207.65 197.984 1171.52 204.16 1132 204.16C1129.09 204.16 1126.21 204.16 1123.49 204.16L1116.51 203.968C1110.53 203.968 1104.89 203.648 1099.45 203.648C1065.41 203.648 1044.35 210.592 1030.43 247.2C1021.66 270.336 1011.71 296.544 987.807 313.44C981.055 318.24 974.303 322.336 968.319 325.92C954.495 334.272 943.583 340.864 943.167 349.984C942.815 358.368 951.263 368.448 970.655 382.656C989.215 396.288 1004.51 402.912 1017.37 402.912C1018.53 402.912 1019.71 402.912 1020.83 402.912C1039.52 401.184 1052.06 385.728 1067.93 366.176C1075.75 356.233 1084.08 346.705 1092.89 337.632C1133.91 296.393 1184.73 266.236 1240.57 249.984C1262.74 243.484 1285.7 240.123 1308.8 240C1363.2 240 1405.25 259.68 1440 282.464V281.312C1405.25 258.624 1363.2 239.04 1308.8 239.04C1285.61 239.192 1262.56 242.585 1240.32 249.12C1184.32 265.431 1133.36 295.674 1092.22 337.024C1083.38 346.109 1075.03 355.659 1067.2 365.632C1051.45 385.024 1039.04 400.32 1020.73 402.016C1019.65 402.016 1018.49 402.016 1017.37 402.016C1004.73 402.016 989.631 395.616 971.199 381.952C951.999 367.936 943.775 358.112 944.127 349.952C944.511 341.376 955.263 334.88 968.831 326.688C974.815 323.072 981.631 318.976 988.383 314.176C1012.51 297.088 1022.49 270.72 1031.33 247.456C1045.02 211.616 1065.85 204.8 1099.45 204.8C1104.89 204.8 1110.53 204.96 1116.48 205.12L1123.45 205.312C1126.21 205.312 1129.05 205.312 1132 205.312C1171.58 205.312 1207.9 199.104 1243.01 193.12C1272.32 188.128 1300 183.52 1324.96 183.52C1338 183.356 1351 185.003 1363.58 188.416C1388.38 195.456 1413.79 207.072 1440 220.8V219.712C1413.89 206.208 1388.57 194.688 1363.84 187.712C1351.19 184.124 1338.1 182.336 1324.96 182.4V182.4Z" fill="white"/><path d="M909.917 742.395C906.205 790.939 915.805 830.235 936.925 853.019C947.965 864.955 961.533 871.515 975.133 871.515C994.525 871.515 1010.05 858.043 1014.65 837.211C1028.13 776.411 1007.26 721.499 987.389 686.235C964.061 644.827 934.173 615.515 919.805 605.915C914.525 602.427 910.845 600.251 908.573 600.251C908.207 600.24 907.843 600.309 907.506 600.452C907.169 600.596 906.867 600.811 906.621 601.083C904.765 603.163 905.533 609.115 907.037 620.891C912.452 661.164 913.417 701.911 909.917 742.395V742.395ZM907.325 601.595C907.481 601.42 907.674 601.284 907.89 601.195C908.106 601.106 908.34 601.068 908.573 601.083C910.589 601.083 914.301 603.291 919.261 606.587C951.741 628.251 1038.01 726.971 1013.69 836.987C1009.18 857.403 994.045 870.555 975.293 870.555C961.981 870.555 948.637 864.155 937.789 852.379C916.829 829.787 907.357 790.747 911.037 742.459C914.546 701.942 913.569 661.162 908.125 620.859C906.621 609.979 905.789 603.451 907.325 601.595Z" fill="white"/><path d="M891.522 745.601C887.81 806.049 899.394 853.761 924.066 880.001C936.866 893.601 952.354 900.769 968.866 900.769C1000.55 900.769 1027.36 875.169 1035.65 836.993C1047.84 780.737 1037.35 725.345 1004.48 672.385C971.17 618.721 925.09 584.001 900.578 568.097C888.098 560.001 882.754 556.641 880.706 559.073C878.658 561.505 880.13 566.945 882.306 578.529C887.106 603.553 896.994 655.809 891.522 745.601ZM881.474 559.713C881.617 559.552 881.795 559.425 881.995 559.342C882.194 559.258 882.41 559.221 882.626 559.233C885.218 559.233 890.818 562.881 900.098 568.833C981.762 621.857 1060.1 720.065 1034.72 836.737C1026.56 874.433 1000.1 899.745 968.898 899.745C952.61 899.745 937.346 892.673 924.77 879.297C900.258 853.249 888.802 805.697 892.482 745.601C897.954 655.777 888.066 603.425 883.298 578.305C881.282 567.681 880.002 561.281 881.474 559.617V559.713Z" fill="white"/><path d="M523.262 544.739C532.318 544.739 538.814 536.003 545.662 522.883C557.822 499.971 583.134 488.899 596.862 482.947C603.742 479.907 606.462 478.787 605.982 476.899C605.502 475.011 603.934 474.627 594.526 473.987C566.174 472.067 502.558 499.107 495.326 519.459C494.461 521.634 494.351 524.036 495.012 526.281C495.674 528.526 497.068 530.484 498.974 531.843C509.886 540.867 517.182 544.643 523.39 544.643L523.262 544.739ZM497.31 520.227C503.998 501.635 563.134 476.131 591.486 476.131C592.478 476.131 593.438 476.131 594.334 476.131C597.372 476.2 600.395 476.575 603.358 477.251C600.951 478.572 598.472 479.758 595.934 480.803C582.046 486.851 556.254 498.147 543.774 521.763C535.902 536.611 530.142 542.403 523.262 542.403C517.63 542.403 510.75 538.691 500.254 530.019C498.73 528.959 497.61 527.414 497.075 525.637C496.541 523.859 496.623 521.952 497.31 520.227V520.227Z" fill="white"/><path d="M551.104 543.584C572.896 503.872 612.736 490.016 644.992 482.368C648.192 481.632 648.384 480.064 648.192 479.168C647.456 472.768 617.248 460.32 572.16 460.32C567.072 460.32 561.856 460.48 556.672 460.8C536.096 462.048 487.52 490.784 470.048 512C465.504 517.504 463.456 522.112 463.936 525.632C465.152 534.464 473.024 538.432 482.112 542.912C491.712 547.712 502.688 553.152 508 565.856C511.2 573.216 515.168 576.96 520.064 576.96C528.512 577.024 538.912 565.792 551.104 543.584ZM509.504 565.28C503.968 552.064 492.768 546.496 482.88 541.568C474.176 537.216 466.656 533.472 465.568 525.568C465.152 522.528 467.136 518.208 471.328 513.12C488.576 492.096 536.512 463.68 556.832 462.464C561.952 462.144 567.136 461.984 572.192 461.984C616.512 461.984 646.048 474.24 646.656 479.424C646.656 480.256 645.408 480.704 644.576 480.896C612 488.608 571.776 502.624 549.664 542.88C531.2 576.256 517.536 584.352 509.536 565.28H509.504Z" fill="white"/><path d="M1180.28 916.196C1182.56 919.396 1188.16 920.9 1198.94 920.9C1205.66 920.9 1213.72 920.356 1223.04 919.716C1234.56 918.948 1247.64 918.084 1261.15 918.084C1303.96 918.084 1332.8 927.172 1352.03 946.884C1369.92 960.644 1379.8 983.076 1388.51 1002.85C1399.07 1026.92 1408.22 1047.65 1428.41 1047.65C1430.67 1047.64 1432.92 1047.41 1435.13 1046.95C1436.77 1046.61 1438.4 1046.18 1440 1045.67V1044C1438.2 1044.58 1436.44 1045.03 1434.81 1045.38C1432.71 1045.81 1430.56 1046.04 1428.41 1046.05C1409.21 1046.05 1400.32 1025.73 1390.01 1002.18C1381.21 982.212 1371.26 959.588 1353.15 945.636C1333.66 925.796 1304.44 916.548 1261.18 916.548C1247.61 916.548 1234.52 917.412 1222.97 918.212C1213.66 918.82 1205.66 919.364 1198.97 919.364C1189.02 919.364 1183.52 918.084 1181.63 915.332C1181.11 914.386 1180.83 913.324 1180.83 912.244C1180.83 911.164 1181.11 910.101 1181.63 909.156C1202.01 854.756 1219.04 785.828 1217.4 764.612C1214.52 727.46 1198.2 692.356 1182.4 658.436C1163.2 616.836 1144.83 577.7 1156.41 544.996C1172.41 499.556 1246.01 420.676 1286.01 415.236C1288.13 414.965 1290.27 414.837 1292.41 414.852C1323.45 414.852 1378.14 437.06 1440.12 473.828V471.972C1378.2 435.364 1323.55 413.252 1292.41 413.252C1290.21 413.233 1288 413.372 1285.82 413.668C1245.5 419.14 1171.2 498.66 1154.94 544.484C1143.13 577.796 1161.5 617.284 1180.96 659.108C1196.7 692.9 1212.96 727.876 1215.84 764.708C1217.28 783.3 1202.01 850.18 1180.19 908.708C1179.59 909.868 1179.29 911.158 1179.3 912.464C1179.32 913.769 1179.66 915.051 1180.28 916.196V916.196Z" fill="white"/><path d="M713.6 91.5513C718.722 91.4471 723.818 90.7927 728.8 89.5993C734.688 88.2873 740.256 87.0393 745.312 86.3993C753.888 85.2473 762.176 84.7673 769.536 84.3513C777.683 83.9458 785.61 81.5742 792.64 77.4393C822.432 59.9993 834.88 24.3833 838.848 9.88725C839.808 6.39925 840.768 3.13525 841.696 0.03125H840.704C839.776 3.23125 838.848 6.23925 837.92 9.63125C833.984 24.0313 821.632 59.3593 792.16 76.6073C785.246 80.671 777.45 82.9987 769.44 83.3912C762.112 83.8072 753.792 84.2873 745.184 85.4393C740.096 86.1433 734.496 87.3593 728.576 88.6393C723.666 89.8082 718.646 90.4519 713.6 90.5592C706.528 90.5592 701.6 88.7352 698.528 84.9912C693.984 79.4872 693.344 69.5672 696.512 53.8552L697.024 51.2953C701.28 29.6633 708.608 12.8953 720.16 0.09525H718.912C707.552 13.1512 700.32 29.7593 696.064 51.2953L695.552 53.8552C692.352 69.8553 693.056 80.0313 697.792 85.8553C701.12 89.5993 706.272 91.5513 713.6 91.5513Z" fill="white"/><path d="M1324.96 204.577C1301.83 204.577 1274.98 209.153 1246.56 214.017C1210.59 220.161 1173.38 226.497 1132 226.497C1128.97 226.497 1125.97 226.497 1122.98 226.497L1115.91 226.305C1110.11 226.305 1104.61 225.985 1099.46 225.985C1054.66 225.985 1052.42 250.625 1050.05 276.737C1048.77 291.041 1047.46 305.825 1039.55 318.337C1036.74 322.849 1029.19 328.513 1021.19 334.529C1004.13 347.329 984.802 361.857 994.082 375.457C995.512 378.021 997.574 380.175 1000.07 381.716C1002.57 383.256 1005.42 384.131 1008.35 384.257C1011.72 384.142 1015.01 383.232 1017.95 381.601C1033.09 373.793 1049.25 350.721 1062.24 332.161C1069.63 321.601 1076 312.513 1079.49 310.433C1082.94 308.601 1086.82 307.749 1090.72 307.969H1094.82C1096.19 307.969 1097.6 307.969 1099.01 307.969C1101.89 308.204 1104.79 307.863 1107.53 306.968C1110.28 306.072 1112.82 304.64 1115.01 302.753C1121.06 297.249 1121.83 289.953 1122.56 283.201C1123.23 276.801 1123.84 271.105 1127.97 266.177C1140.45 251.265 1184.23 240.833 1213.19 233.953C1221.73 231.905 1229.19 230.177 1234.56 228.577C1258.69 221.567 1283.68 217.959 1308.8 217.857C1362.31 217.857 1405.09 235.393 1440 256.257V254.369C1405.06 233.505 1362.27 215.969 1308.8 215.969C1283.48 216.216 1258.32 219.996 1234.05 227.201C1228.61 228.769 1221.25 230.401 1212.77 232.545C1181.86 239.905 1139.52 249.985 1126.69 265.313C1122.24 270.625 1121.57 276.993 1120.9 283.169C1120.16 290.081 1119.49 296.641 1113.86 301.729C1111.83 303.463 1109.48 304.78 1106.95 305.604C1104.41 306.427 1101.73 306.742 1099.07 306.529C1097.7 306.529 1096.32 306.529 1094.95 306.529H1090.79C1086.59 306.301 1082.42 307.231 1078.72 309.217C1074.95 311.489 1068.8 320.257 1060.99 331.393C1048.8 348.833 1032.19 372.737 1017.31 380.353C1008.29 384.993 1001.15 383.169 995.394 374.721C986.978 362.369 1005.67 348.353 1022.15 335.969C1030.63 329.569 1037.95 324.097 1040.93 319.361C1048.99 306.561 1050.34 291.457 1051.65 276.961C1054.05 250.529 1056.1 227.681 1099.46 227.681C1104.61 227.681 1110.08 227.681 1115.87 228.001L1122.91 228.193C1125.92 228.193 1128.96 228.193 1132 228.193C1173.6 228.193 1210.79 221.793 1246.85 215.681C1275.17 210.849 1301.95 206.273 1324.96 206.273C1335.89 206.11 1346.79 207.467 1357.35 210.305C1383.49 217.601 1411.2 230.945 1440 246.401V244.481C1411.2 229.281 1383.84 216.129 1357.79 208.673C1347.1 205.782 1336.04 204.403 1324.96 204.577V204.577Z" fill="white"/><path d="M720.001 57.792C722.465 62.56 727.745 64.992 735.777 64.992C738.058 64.9677 740.334 64.7967 742.593 64.48C751.969 63.232 760.737 62.72 768.513 62.272C773.169 62.0296 777.699 60.6803 781.729 58.336C799.009 48.224 819.489 18.432 820.129 0H818.529C817.825 17.696 797.473 47.264 780.865 56.96C778.857 58.1288 776.705 59.0324 774.465 59.648C772.379 60.2365 770.231 60.5801 768.065 60.672C760.321 61.12 751.521 61.632 742.081 62.912C731.041 64.384 723.873 62.4 721.121 57.056C717.409 49.792 721.825 35.84 732.705 20.576C739.139 11.8562 747.566 4.80138 757.281 0L753.921 0C745.1 4.82154 737.451 11.5304 731.521 19.648C720.001 35.616 715.777 49.888 720.001 57.792Z" fill="white"/><path d="M1228.61 874.498C1234.56 883.074 1247.14 884.098 1264.55 885.346L1270.37 885.826C1275.88 886.274 1281.64 886.466 1287.72 886.658C1316 887.65 1348.07 888.738 1377.03 915.106L1377.38 915.426C1393.38 929.474 1402.98 954.242 1411.43 976.226C1419.88 998.21 1427.24 1017.25 1438.92 1017.25H1440V1016.26C1439.64 1016.29 1439.28 1016.29 1438.92 1016.26C1427.91 1016.26 1420.68 997.538 1412.32 975.842C1403.97 954.146 1394.24 929.026 1378.02 914.786L1377.67 914.498C1348.45 887.874 1316.2 886.786 1287.75 885.698C1281.67 885.506 1275.91 885.314 1270.44 884.866L1264.61 884.418C1247.46 883.074 1235.11 882.146 1229.41 873.954C1223.72 865.762 1224.77 851.554 1231.88 826.914C1238.21 806.206 1240.73 784.523 1239.33 762.914C1236.13 721.794 1218.95 684.834 1202.31 649.09C1184.96 611.81 1168.58 576.578 1177.16 552.386C1191.43 512.098 1260.36 440.994 1288.9 437.186C1290.02 437.041 1291.16 436.977 1292.29 436.994C1316.13 436.994 1370.05 456.834 1440 499.65V498.53C1370.12 455.81 1316.2 436.034 1292.29 436.034C1291.12 436.017 1289.94 436.081 1288.77 436.226C1259.97 440.162 1190.6 511.65 1176.23 552.13C1167.52 576.674 1184 612.098 1201.48 649.602C1218.05 685.122 1235.2 721.954 1238.4 762.914C1239.81 784.436 1237.29 806.034 1230.98 826.658C1223.68 852.066 1222.98 866.402 1228.61 874.498Z" fill="white"/><path d="M645.12 1163.87C692.768 1158.46 749.504 1101.85 764.704 1058.59C791.136 983.453 744.192 922.973 698.784 864.509C654.944 808.029 613.568 754.717 633.696 689.789C651.232 633.245 707.872 602.717 752.256 602.717C776.192 602.717 796.864 611.197 810.528 626.621C826.752 644.925 833.12 672.733 828.96 707.037C814.656 824.893 810.4 953.821 941.792 991.837C956.16 996.102 971.06 998.311 986.048 998.397C1041.34 998.397 1076.67 966.685 1096.54 940.125C1134.66 889.149 1147.9 812.893 1129.47 750.365C1113.86 697.373 1083.1 645.981 1035.52 593.245C964.736 514.845 868.384 447.421 740.896 387.165L735.392 384.541C681.76 359.197 626.304 332.957 567.904 318.493C564.448 317.629 560.608 316.605 556.512 315.517C538.464 310.749 516.032 304.765 496.768 304.765C490.036 304.613 483.326 305.609 476.928 307.709C468.608 310.685 463.936 316.381 459.392 321.885C456.128 326.345 452.11 330.2 447.52 333.277C442.283 335.991 436.862 338.333 431.296 340.285C420.512 344.445 409.312 348.765 405.696 352.893C398.88 360.893 400.736 365.693 402.496 370.365C403.39 372.076 403.933 373.948 404.092 375.871C404.252 377.795 404.024 379.731 403.424 381.565L402.176 385.277C392.576 413.789 392.576 413.789 370.176 420.253C365.856 421.501 360.576 423.037 354.176 425.085C335.776 430.941 328.224 439.965 320.928 448.701C315.364 456.216 308.22 462.42 300 466.877H299.104C287.584 466.877 200.224 472.637 193.504 494.109C191.68 499.901 195.616 506.205 205.184 512.797C212.885 518.703 222.296 521.948 232 522.045C234.816 522.045 237.344 521.789 239.808 521.565C241.794 521.323 243.791 521.184 245.792 521.149C252.832 521.149 259.936 523.165 269.696 547.165C272.096 553.085 273.952 557.949 275.488 561.949C283.04 581.725 283.264 581.981 302.464 590.173C307.232 592.221 313.152 594.749 320.672 598.205C345.376 609.597 350.432 622.557 356.832 638.941C360.549 649.275 365.412 659.161 371.328 668.413C378.889 679.357 387.46 689.567 396.928 698.909C412.576 715.197 427.36 730.589 432.128 756.285C440.288 800.797 416.128 843.293 388.8 882.589C375.552 901.629 348.32 923.837 319.488 947.325C270.72 987.165 215.232 1032.35 215.04 1074.24C215.04 1098.14 221.056 1116.48 233.28 1128.64C246.592 1142.01 266.816 1148.54 295.136 1148.54C336.16 1148.54 386.624 1134.69 431.136 1122.46C466.336 1112.86 496.416 1104.57 515.776 1104.57C519.489 1104.48 523.197 1104.92 526.784 1105.89C545.44 1111.42 560.256 1123.26 574.56 1134.69C593.536 1149.89 611.488 1164.22 637.12 1164.22C639.791 1164.26 642.463 1164.14 645.12 1163.87V1163.87ZM527.424 1104C523.631 1102.96 519.706 1102.49 515.776 1102.59C496.128 1102.59 465.728 1110.91 430.528 1120.57C386.144 1132.73 335.872 1146.53 295.136 1146.56C267.456 1146.56 247.712 1140.16 234.848 1127.36C223.072 1115.52 217.152 1097.73 217.28 1074.43C217.6 1033.6 272.512 988.573 321.088 949.021C349.888 925.437 377.376 903.165 390.784 883.837C418.4 844.125 442.784 801.149 434.496 755.837C429.664 729.501 414.656 713.885 398.784 697.341C389.335 688.097 380.764 677.995 373.184 667.165C367.367 658.026 362.581 648.27 358.912 638.077C352.32 621.245 347.136 607.933 321.6 596.157C314.048 592.669 308.128 590.141 303.36 588.093C284.864 580.189 284.864 580.189 277.568 561.117C276.032 557.085 274.176 552.253 271.776 546.301C262.464 523.389 255.2 518.877 245.792 518.877C243.717 518.91 241.645 519.049 239.584 519.293C237.184 519.517 234.688 519.773 232 519.773C222.733 519.695 213.744 516.594 206.4 510.941C197.76 504.925 194.112 499.485 195.584 494.749C201.44 476.093 282.848 469.149 299.04 469.149H299.84L300.096 468.125L300.576 469.085C309.219 464.495 316.73 458.034 322.56 450.173C329.984 441.277 336.992 432.925 354.784 427.229C361.184 425.213 366.496 423.677 370.784 422.429C394.048 415.709 394.336 415.357 404.32 386.013L405.6 382.301C406.292 380.208 406.561 377.999 406.391 375.801C406.221 373.604 405.614 371.462 404.608 369.501C402.912 365.085 401.408 361.277 407.36 354.301C410.56 350.589 421.92 346.173 431.968 342.301C437.665 340.304 443.215 337.909 448.576 335.133C453.419 331.913 457.663 327.874 461.12 323.197C465.664 317.661 469.952 312.477 477.664 309.693C483.859 307.675 490.351 306.723 496.864 306.877C515.84 306.877 538.112 312.797 556.032 317.565C560.128 318.653 563.968 319.677 567.456 320.541C625.632 334.941 680.992 361.117 734.528 386.461L740.032 389.053C867.232 449.213 963.392 516.445 1033.95 594.589C1081.31 647.101 1111.9 698.205 1127.42 750.877C1145.66 812.765 1132.54 888.189 1094.85 938.653C1075.26 964.829 1040.45 996.029 986.048 996.029C971.27 995.963 956.575 993.809 942.4 989.629C812.8 952.157 816.992 824.253 831.168 707.197C835.424 672.253 828.864 643.837 812.192 625.053C798.112 609.053 776.832 600.381 752.256 600.381C707.072 600.381 649.408 631.453 631.552 689.053C611.072 755.069 654.752 811.357 697.024 865.757C742.048 923.773 788.608 983.773 762.592 1057.76C747.584 1100.45 691.744 1156.25 644.864 1161.6C642.293 1161.89 639.708 1162.04 637.12 1162.05C612.256 1162.05 594.624 1147.93 575.968 1132.99C561.472 1121.47 546.496 1109.5 527.424 1104Z" fill="white"/><path d="M700.221 116.48C711.534 115.987 722.764 114.303 733.725 111.456C739.133 110.272 744.253 109.12 748.381 108.576C756.093 107.52 763.613 107.104 770.781 106.656C785.885 105.792 800.189 104.992 811.549 98.528C820.701 93.312 827.357 84.736 831.933 72.32C840.779 47.3098 851.775 23.1127 864.797 0L863.709 0C850.82 23.024 839.931 47.1125 831.165 72C826.653 84.192 820.125 92.608 811.197 97.6C800.061 104 785.853 104.736 770.845 105.6C763.549 106.048 756.029 106.464 748.253 107.52C744.093 108.064 738.941 109.216 733.501 110.432C722.612 113.25 711.458 114.923 700.221 115.424C689.629 115.424 682.141 112.864 677.309 107.552C665.533 94.752 671.421 65.216 674.589 49.408L675.101 46.88C678.082 30.3313 684.01 14.4526 692.605 0L691.485 0C682.985 14.459 677.113 30.3091 674.141 46.816L673.661 49.312C670.461 65.312 664.509 95.04 676.605 108.288C681.597 113.792 689.341 116.48 700.221 116.48Z" fill="white"/><path d="M947.935 0H945.727C942.189 3.67691 938.866 7.55538 935.775 11.616C900.575 59.616 884.831 103.872 887.935 147.008C889.119 163.776 887.071 174.88 881.535 180.96C879.585 182.955 877.224 184.501 874.615 185.49C872.007 186.479 869.214 186.888 866.431 186.688C857.119 186.688 845.631 183.136 833.503 179.392C822.707 175.661 811.587 172.94 800.287 171.264C792.061 170.382 783.793 169.944 775.519 169.952C748.383 169.952 722.623 174.272 695.519 178.848L681.695 181.152H681.343C671.12 183.045 660.762 184.115 650.367 184.352C630.399 184.512 617.599 177.888 611.199 164.256C598.015 135.808 601.599 101.568 604.959 71.456C605.375 67.392 605.823 63.36 606.207 59.392C607.972 39.2375 611.877 19.3281 617.855 0L616.159 0C610.328 19.2528 606.521 39.0613 604.799 59.104C604.415 63.072 603.999 67.104 603.551 71.168C600.351 101.6 596.543 136.096 609.951 164.96C616.575 179.2 629.823 186.112 650.463 186.112C660.943 185.878 671.386 184.808 681.695 182.912H682.047L695.871 180.608C723.071 176.064 748.799 171.744 775.871 171.744C784.092 171.737 792.306 172.175 800.479 173.056C811.67 174.722 822.683 177.422 833.375 181.12C845.631 184.896 857.215 188.48 866.783 188.48C869.802 188.678 872.827 188.207 875.643 187.101C878.459 185.995 880.995 184.28 883.071 182.08C888.831 175.68 891.007 164.192 889.759 146.88C886.559 104.16 902.271 60.224 937.311 12.48C940.601 8.11184 944.148 3.94439 947.935 0V0Z" fill="white"/><path d="M937.6 242.556C926.752 250.236 912 253.948 892.192 253.948C869.024 253.948 843.136 248.764 820.288 244.348C806.848 241.66 794.112 239.1 783.744 237.948C771.921 236.732 760.044 236.123 748.16 236.124C716.992 236.124 676.992 240.348 663.584 260.476C657.728 269.244 657.504 280.22 662.848 293.18C665.376 299.228 671.904 302.556 678.208 305.724C683.135 307.721 687.569 310.767 691.2 314.652C694.528 320.017 697 325.869 698.528 331.996C701.12 340.348 703.776 348.956 709.824 354.044C717.033 360.23 726.279 363.525 735.776 363.292C742.943 363.038 750.069 362.095 757.056 360.476C763.936 358.874 770.955 357.941 778.016 357.692C784.125 357.568 790.17 358.953 795.616 361.724C808.416 368.124 813.696 377.084 818.88 385.628C825.632 396.764 832 407.26 852.992 412.188C896.96 422.46 908.992 433.212 938.08 459.164C941.824 462.364 945.856 466.108 950.272 469.98C959.878 478.947 968.464 488.949 975.872 499.804C982.547 509.424 990.042 518.45 998.272 526.78C1007.34 535.238 1017.91 541.923 1029.44 546.492C1042.69 552.54 1055.2 558.236 1066.56 577.724L1068.35 580.924C1082.66 605.628 1097.15 628.508 1105.98 628.508C1106.68 628.516 1107.36 628.371 1107.99 628.084C1108.62 627.796 1109.18 627.373 1109.63 626.844C1112.83 623.356 1113.7 614.044 1112.29 598.364C1111.46 589.212 1104.83 580.988 1098.4 573.052C1091.49 564.508 1084.96 556.444 1085.34 547.452C1085.82 536.732 1092.29 531.452 1099.14 525.916C1104.65 522.066 1109.19 516.982 1112.38 511.068C1119.68 495.356 1121.44 481.308 1123.17 467.708C1125.54 448.764 1127.78 430.908 1144.7 410.684C1176.16 373.761 1217.83 346.972 1264.48 333.692C1278.86 329.368 1293.78 327.106 1308.8 326.972C1356.8 326.972 1391.1 353.052 1427.52 380.636L1440 390.044V387.196C1436.26 384.412 1432.54 381.596 1428.86 378.812C1392.16 350.972 1357.47 324.7 1308.8 324.7C1293.62 324.828 1278.54 327.102 1264 331.452C1216.93 344.846 1174.89 371.882 1143.17 409.148C1125.79 429.852 1123.52 448.06 1121.09 467.324C1119.39 480.764 1117.66 494.652 1110.53 510.012C1107.46 515.611 1103.13 520.421 1097.89 524.06C1090.98 529.724 1083.78 535.548 1083.26 547.26C1082.85 557.02 1089.95 565.82 1096.83 574.3C1103.04 581.98 1109.44 589.916 1110.21 598.428C1111.87 616.828 1110.02 623.132 1108.16 625.18C1107.91 625.47 1107.6 625.704 1107.25 625.864C1106.91 626.024 1106.53 626.107 1106.14 626.108C1097.31 626.108 1078.5 593.564 1070.43 579.644L1068.67 576.444C1056.96 556.316 1044.1 550.492 1030.53 544.284C1019.24 539.826 1008.88 533.316 999.967 525.084C991.82 516.834 984.391 507.906 977.759 498.396C970.24 487.398 961.526 477.266 951.776 468.188C947.36 464.348 943.328 460.732 939.584 457.404C910.176 431.164 897.984 420.316 853.504 409.916C833.408 405.212 827.296 395.068 820.8 384.316C815.456 375.516 809.952 366.396 796.64 359.548C790.869 356.639 784.477 355.179 778.016 355.292C770.806 355.546 763.637 356.489 756.608 358.108C749.77 359.707 742.793 360.64 735.776 360.892C726.803 361.125 718.065 358.011 711.264 352.156C705.728 347.484 703.136 339.356 700.672 331.196C699.091 324.818 696.498 318.736 692.992 313.18C689.182 308.974 684.466 305.691 679.2 303.58C672.8 300.38 667.104 297.468 664.896 292.156C659.84 279.932 660 269.756 665.408 261.564C678.208 242.364 717.504 238.204 748.128 238.204C759.884 238.201 771.632 238.799 783.328 239.996C793.632 241.116 806.304 243.644 819.712 246.396C842.656 250.972 868.64 256.188 892.032 256.188C912.192 256.188 927.488 252.348 938.72 244.38C966.72 224.604 958.688 194.748 950.944 165.852C942.624 135.004 934.048 103.1 968.544 82.2995C973.574 79.581 979.247 78.2761 984.96 78.5235C1005.6 78.5235 1034.66 89.8195 1062.75 100.732C1087.23 110.332 1110.34 119.196 1125.38 119.548H1131.78C1164.1 119.548 1196.77 113.98 1228.35 108.572C1259.94 103.164 1292.51 97.6275 1324.74 97.6275C1345.74 97.4291 1366.67 100.187 1386.91 105.82C1405.04 111.127 1422.78 117.682 1440 125.436V122.972C1423.03 115.402 1405.57 108.988 1387.74 103.772C1367.31 98.0761 1346.17 95.286 1324.96 95.4835C1292.54 95.4835 1259.84 101.084 1228.22 106.46C1196.61 111.836 1164.22 117.404 1132 117.404C1129.79 117.404 1127.68 117.404 1125.6 117.404C1110.94 117.052 1088 108.156 1063.74 98.7155C1035.42 87.7395 1006.14 76.3155 985.12 76.3155C978.998 76.0375 972.919 77.4549 967.551 80.4115C931.615 102.108 940.416 134.812 948.928 166.46C956.8 195.868 964.256 223.676 937.6 242.556Z" fill="white"/><path d="M665.379 160.828C674.295 160.629 683.179 159.687 691.939 158.012C722.769 152.938 753.974 150.486 785.219 150.684C793.699 150.684 802.403 150.684 811.875 151.1C815.075 151.1 818.019 151.26 820.611 151.26C836.259 151.26 845.379 149.372 852.099 144.86C860.163 139.292 864.899 129.532 868.099 112.252C875.331 72.5723 891.267 36.9243 918.147 0.25225H916.963C890.211 36.7003 874.339 72.3163 867.203 111.996C864.003 128.988 859.427 138.556 851.619 143.996C845.059 148.508 836.099 150.396 820.675 150.396C818.083 150.396 815.235 150.396 811.971 150.396C802.371 150.108 793.763 149.98 785.283 149.98C753.984 149.778 722.724 152.24 691.843 157.34C683.134 158.99 674.304 159.921 665.443 160.124C646.243 160.124 632.323 153.724 627.491 122.14C622.883 91.9642 626.979 60.0283 631.203 38.5563C633.739 25.4263 637.521 12.5681 642.499 0.15625H641.475C636.523 12.4809 632.772 25.2548 630.275 38.3003C626.019 59.8363 621.923 91.8683 626.531 122.172C630.691 149.596 641.955 160.828 665.379 160.828Z" fill="white"/><path d="M678.564 136.8C681.782 136.778 684.993 136.489 688.164 135.936C714.93 131.546 741.974 129.054 769.092 128.48C775.492 128.48 781.892 128.48 788.036 128.64C792.1 128.64 795.94 128.832 799.684 128.832C811.172 128.832 823.108 127.936 832.292 121.504C839.94 116.128 845.348 107.264 848.9 94.368C857.851 60.8912 872.042 29.0414 890.948 0L889.796 0C871.02 28.9874 856.918 60.7455 848.004 94.112C844.516 106.912 839.204 115.488 831.78 120.704C822.788 127.104 811.044 127.872 799.78 127.872C796.036 127.872 792.228 127.872 788.164 127.68C782.116 127.68 775.78 127.36 769.156 127.68C741.967 128.197 714.849 130.635 688.004 134.976C673.38 137.44 662.404 134.496 655.716 126.24C640.26 107.456 648.58 65.44 653.06 42.656C655.868 27.8912 660.579 13.5529 667.076 0L665.988 0C659.606 13.5118 654.972 27.7812 652.196 42.464C647.684 65.28 639.396 107.712 655.044 126.848C657.935 130.204 661.561 132.848 665.64 134.574C669.72 136.3 674.142 137.062 678.564 136.8V136.8Z" fill="white"/></g><defs><clipPath id="clip0_1363_30519"><rect width="1440" height="1440" fill="white"/></clipPath></defs></svg>
